<svg width="468" height="469" viewBox="0 0 468 469" fill="none" xmlns="http://www.w3.org/2000/svg">
<path d="M398.004 -3.9325H454.333C454.333 -3.9325 456.32 -0.68432 457.039 1.23287L458.865 6.10322C461.133 11.847 463.241 17.6966 465.191 23.652C466.856 28.7392 467.52 34.1398 469.076 39.2614C469.833 41.7496 470.693 44.1983 471.167 46.5698C472.138 51.4258 472.786 53.3682 473.757 56.9292C475.976 66.9187 480.904 76.1036 488.001 83.4753L493.829 89.6263L503.217 99.3382C512.295 110.811 517.508 124.863 518.108 139.481V143.042C518.108 151.459 519.727 160.2 521.346 168.941C525.099 188.943 527.586 209.163 528.792 229.479C528.981 236.442 530.293 243.329 532.676 249.874C534.019 253.955 536.394 257.62 539.571 260.512C541.211 262.006 543.036 263.268 544.994 264.27C548.661 266.148 552.885 266.384 557.005 266.384H557.28C564.36 266.199 571.183 263.697 576.704 259.262C585.997 251.757 592.775 241.591 596.128 230.126C599.127 219.596 600.653 208.702 600.66 197.753C600.516 189.723 601.167 181.699 602.603 173.797C605.042 156.994 613.567 141.672 626.559 130.74C631.415 126.855 636.918 122.971 642.098 119.41L645.659 117.144C653.219 111.099 658.843 102.972 661.835 93.7664C664.228 86.4012 664.853 78.6039 663.695 71C663.117 67.2042 661.707 63.4677 658.932 60.814C656.799 58.4204 654.214 56.4729 651.325 55.0838C648.435 53.6947 645.299 52.8916 642.098 52.7207C637.786 52.4326 633.46 52.4326 629.149 52.7207H615.228C610.631 52.6684 606.06 52.0154 601.632 50.7783C583.434 45.4951 567.425 34.4824 555.985 19.3763C551.477 13.6878 547.88 7.33662 545.319 0.549776C545.114 0.0074594 544.978 0.0237927 544.978 -0.555856C544.978 -1.26504 545.553 -2.63756 546.262 -2.63756H567.791C570.213 -2.63756 572.849 -1.95646 573.791 0.27603C577.13 7.40169 581.864 13.7861 587.711 19.0525C598.331 28.0766 611.993 32.7081 625.911 32.0018H630.369C633.005 32.0018 635.638 31.8123 638.247 31.4346L653.369 29.2459C657.068 28.7105 660.811 28.5907 664.548 28.6652C666.046 28.6951 667.544 28.701 669.042 28.6829C673.511 28.6291 678.317 28.1231 681.532 25.0186C683.162 23.445 684.402 21.5131 685.155 19.3763C686.89 13.8951 688.083 8.25665 688.716 2.54216L-nan -nanL688.716 2.54216C688.716 2.54216 688.716 1.59442 688.716 0.599828C688.716 -0.472928 689.585 -1.34263 690.658 -1.34263H710.775C712.636 -1.34263 714.599 -0.820367 715.525 0.794269C715.811 1.29336 716.07 1.81239 716.408 2.27815C719.618 6.70479 723.9 10.2503 728.858 12.5779C733.393 14.4839 738.042 16.1057 742.779 17.4339L-nan -nanL742.779 17.4339H746.819C747.146 17.4339 747.472 17.4732 747.789 17.5529C753.694 19.0374 759.485 20.945 765.117 23.261C772.178 26.1325 778.095 31.253 781.951 37.829C787.686 48.174 789.848 60.1222 788.102 71.8209C787.368 79.9441 784.653 87.7633 780.194 94.5928C775.735 101.422 769.669 107.053 762.527 110.993C752.974 116.304 742.997 120.808 732.699 124.459C730.591 125.207 728.365 125.561 726.128 125.561C724.501 125.561 722.877 125.744 721.303 126.159C715.582 127.667 709.989 129.632 704.578 132.035C699.232 134.176 694.553 137.705 691.024 142.258C687.496 146.81 685.246 152.222 684.507 157.934C683.875 163.852 683.875 169.821 684.507 175.739V178.976C684.618 185.103 685.488 191.193 687.097 197.105C692.034 215.298 703.577 230.996 719.47 241.133C728.715 247.049 738.34 252.348 748.282 256.996L755.405 260.557C764.988 265.222 774.189 270.634 782.922 276.744C783.474 277.055 784.016 277.382 784.548 277.724C792.14 282.609 794.253 292.227 794.253 301.255V347.109C794.253 347.76 793.724 348.289 793.073 348.289C792.79 348.289 792.515 348.186 792.301 348.001C785.33 341.966 779.604 336.558 774.505 331.778C764.094 321.065 754.364 309.713 745.369 297.786C738.089 288.124 730.08 279.033 721.413 270.593L715.585 265.413C709.111 259.262 701.989 252.788 695.514 245.665C688.697 238.049 682.927 229.557 678.356 220.414C671.836 207.563 667.254 193.817 664.759 179.624L-nan -nanL664.759 179.624C663.926 172.24 662.298 164.968 659.903 157.934C659.089 155.486 657.525 153.356 655.434 151.846C653.342 150.335 650.829 149.521 648.249 149.517C646.096 149.517 643.924 149.658 641.889 150.359C640.147 150.96 638.479 151.763 636.918 152.754C629.506 157.736 624.111 165.196 621.703 173.797C618.914 182.823 617.389 192.193 617.171 201.638V205.846C615.711 223.2 610.403 240.009 601.632 255.054C595.836 265.393 587.615 274.17 577.675 280.629C569.105 285.86 559.227 288.554 549.187 288.398C544.526 288.527 539.864 288.201 535.266 287.427C530.773 286.967 526.531 285.135 523.114 282.182C519.697 279.228 517.272 275.296 516.166 270.917C514.822 265.62 514.062 260.192 513.9 254.73C513.9 249.874 513.9 245.018 513.9 240.162C513.9 235.306 513.9 229.479 513.9 223.652C513.114 212.602 510.826 201.711 507.102 191.278C502.524 178.843 497.116 166.73 490.915 155.02C485.83 142.369 476.424 131.931 464.369 125.561C460.232 123.053 455.586 121.504 450.772 121.028C445.269 121.028 440.736 124.266 435.557 132.035C428.345 143.378 420.34 154.196 411.6 164.408C402.53 174.351 392.678 183.553 382.141 191.926C375.053 197.247 368.867 203.642 363.798 210.861C359.992 216.28 356.759 222.359 354.3 228.508C353.005 231.745 350.415 236.601 348.149 240.486C341.546 253.958 329.922 264.302 315.776 269.298L303.15 273.183L285.668 279.01C277.259 281.82 269.627 286.565 263.386 292.862C257.145 299.16 252.469 306.834 249.734 315.268C246.038 324.96 244.922 335.446 246.497 345.699C248.113 354.441 252.024 362.597 257.827 369.331C269.781 383.001 280.607 397.617 290.201 413.035C292.754 417.661 295.793 422.002 299.265 425.984C301.56 429.192 304.566 431.826 308.048 433.679C311.53 435.533 315.394 436.555 319.337 436.668L-nan -nanL319.337 436.668C331.725 435.847 343.321 430.282 351.71 421.129C359.246 413.22 365.28 404.005 369.515 393.935L-nan -nanL369.515 393.935C376.079 380.522 385.081 368.446 396.061 358.324L428.435 330.16L445.916 314.62C455.743 304.817 468.946 299.142 482.822 298.758H485.735C489.545 298.678 493.324 299.45 496.797 301.019C500.269 302.587 503.348 304.911 505.807 307.822C509.31 311.763 512.152 316.246 514.224 321.095L518.108 329.188C522.447 338.625 527.311 347.812 532.676 356.706C537.724 365.034 544.585 372.116 552.748 377.425C558.485 381.026 565.077 383.037 571.848 383.252C576.079 383.201 580.258 382.321 584.15 380.662C587.974 379.156 591.658 377.314 595.157 375.158L601.632 370.95C607.135 367.713 612.638 364.152 618.142 361.562C626.039 357.421 634.801 355.203 643.717 355.087C647.37 354.613 651.07 354.613 654.724 355.087C662.853 356.359 670.368 360.18 676.186 365.998C682.004 371.816 685.825 379.331 687.097 387.46C688.251 395.079 688.251 402.827 687.097 410.445C686.522 417.267 683.799 423.73 679.32 428.907C674.842 434.083 668.837 437.707 662.17 439.258C654.585 440.653 646.896 441.411 639.185 441.524H613.286C606.811 442.244 600.567 444.352 594.981 447.704C589.394 451.056 584.596 455.573 580.913 460.948C578.941 463.746 577.22 466.709 575.768 469.802C574.324 472.878 574.28 476.694 572.059 479.266C570.927 480.577 569.356 481.43 567.64 481.667H536.747C535.87 481.667 535.029 481.057 535.226 480.203C535.25 480.099 535.273 479.995 535.285 479.89C535.422 478.651 535.416 477.401 535.266 476.163C535.266 476.163 535.266 473.573 535.266 471.955C535.401 461.118 536.267 450.302 537.856 439.581C539.13 432.432 537.749 425.064 533.971 418.862C530.709 412.694 527.757 406.368 525.127 399.907C523.866 396.81 522.416 393.791 520.683 390.932L519.419 388.846C517.686 385.986 516.226 382.97 515.006 379.855C511.94 372.031 508.613 364.206 504.835 356.382C501.265 348.989 496.69 342.126 491.239 335.987C488.746 333.01 485.624 330.623 482.097 328.999C478.57 327.376 474.726 326.556 470.844 326.599L-nan -nanL470.844 326.599C463.767 327.036 456.942 329.385 451.096 333.397C442.031 339.224 433.614 346.023 425.197 352.497L419.694 356.706C411.476 362.974 403.984 370.141 397.356 378.072C390.245 388.015 384.577 398.914 380.522 410.445C373.535 427.604 363.561 443.388 351.062 457.063C345.072 463.174 340.702 470.678 338.344 478.895C338.189 479.432 338.255 480.004 338.327 480.558C338.467 481.628 337.403 482.314 336.323 482.314H297.999C297.089 482.314 296.352 481.577 296.352 480.667C296.352 480.472 296.317 480.278 296.248 480.095C293.539 472.93 289.028 466.607 283.172 461.723C281.443 460.28 279.743 458.793 278.269 457.091C276.947 455.566 275.462 454.191 273.863 452.96C267.741 448.248 261.85 443.243 256.209 437.963C246.668 427.931 238.003 417.1 230.31 405.589C223.752 395.349 215.42 386.359 205.706 379.043C200.872 375.529 196.423 371.514 192.433 367.065C184.664 358.648 177.542 349.907 170.42 341.167L163.621 332.749C157.023 325.981 151.362 318.36 146.787 310.088C139.684 292.622 136.162 273.907 136.428 255.054C136.181 242.386 137.707 229.746 140.96 217.501C143.255 208.607 144.558 199.487 144.845 190.307C144.442 175.395 140.325 160.818 132.867 147.898C129.527 142.309 124.78 137.694 119.099 134.513C113.419 131.332 107.003 129.696 100.493 129.769H97.256C87.3569 130.184 77.7003 132.958 69.0913 137.862C60.9728 142.208 53.2777 147.302 46.1063 153.078C29.8893 165.747 10.7757 174.179 -9.50993 177.616C-9.76903 177.66 -10.0316 177.682 -10.2944 177.682C-12.937 177.682 -15.0792 175.539 -15.0792 172.897V155.474C-15.0792 149.859 -10.5281 145.308 -4.91399 145.308C-4.13959 145.308 -3.36717 145.222 -2.61496 145.038C2.87072 143.696 8.23109 141.892 13.409 139.647C16.0201 138.514 18.6677 137.464 21.3638 136.553C27.9595 134.323 34.389 131.623 40.6028 128.474L47.0774 125.561C62.5524 118.144 79.4503 114.168 96.6086 113.906C101.135 113.589 105.679 113.589 110.205 113.906C117.036 114.772 123.552 117.288 129.193 121.236C134.833 125.184 139.427 130.446 142.579 136.567C149.675 149.487 154.597 163.487 157.147 178.005C158.471 185.934 158.682 194.002 157.779 201.975C157.438 204.993 157.238 208.036 156.774 211.037C156.077 215.549 154.558 219.924 153.586 224.299C153.56 224.412 153.536 224.522 153.513 224.629C152.633 228.708 153.055 232.817 152.335 236.928C150.428 247.819 150.083 258.937 151.319 269.945C152.4 281.888 156.349 293.394 162.831 303.483C169.313 313.572 178.135 321.946 188.549 327.893C193.084 330.867 198.345 332.546 203.764 332.749C207.597 332.604 211.33 331.488 214.614 329.507C217.898 327.525 220.626 324.742 222.541 321.419C226.515 316.194 230.086 310.675 233.224 304.908L237.109 298.758C245.849 284.72 258.433 273.485 273.367 266.384L292.143 258.291L303.474 255.054C311.618 251.892 318.75 246.578 324.11 239.679C329.47 232.78 332.855 224.555 333.905 215.882C335.249 206.992 335.791 197.999 335.523 189.012C335.031 185.685 335.031 182.304 335.523 178.976C335.969 176.131 337.306 173.501 339.342 171.465C340.362 170.445 341.53 169.601 342.8 168.956C345.339 167.667 348.284 167.646 351.132 167.646H358.832C364.155 167.572 369.4 166.348 374.206 164.057C379.011 161.766 383.264 158.462 386.673 154.373C390.368 149.905 393.107 144.727 394.722 139.159C396.336 133.591 396.792 127.751 396.061 122C393.416 108.072 389.179 94.494 383.436 81.5329L380.522 74.7346C378.032 67.4481 375.982 60.0201 374.383 52.4909C373.686 49.2067 372.668 45.9906 371.968 42.707C371.249 39.3378 371.071 35.8647 371.45 32.4189C372.013 27.2949 373.791 22.3793 376.637 18.0813C379.7 13.5729 383.286 9.4435 387.32 5.77949C389.47 3.84513 391.254 1.5329 393.318 -0.492826C394.702 -1.85207 396.279 -3.01204 398.004 -3.9325M408.958 -3.9325C401.76 -3.9325 394.381 -2.52863 388.999 2.2502C387.167 3.87659 385.347 5.52601 383.47 7.10003C379.777 10.1961 376.403 13.6578 373.4 17.4339C370.302 22.1743 368.391 27.5905 367.828 33.2251C367.264 38.8598 368.065 44.5472 370.163 49.8071C373.4 60.1666 377.932 70.2023 382.141 80.238C388.274 92.6029 392.945 105.64 396.061 119.086C397.086 124.495 396.939 130.06 395.632 135.408C394.324 140.755 391.885 145.76 388.48 150.085C385.075 154.411 380.782 157.956 375.891 160.483C371.001 163.009 365.625 164.458 360.127 164.732H352.278C349.314 164.732 346.256 164.773 343.601 166.09C342.163 166.804 340.84 167.751 339.691 168.9C337.483 171.107 336.026 173.953 335.523 177.034C335.027 180.469 335.027 183.958 335.523 187.394C336.328 196.224 336.328 205.109 335.523 213.94C334.535 222.425 331.235 230.475 325.983 237.212C320.73 243.949 313.728 249.113 305.74 252.14C295.704 256.672 285.345 260.233 275.633 265.089C260.461 272.087 247.642 283.331 238.727 297.463C234.402 305.17 229.646 312.627 224.483 319.8C222.685 322.988 220.109 325.669 216.996 327.594C213.883 329.518 210.333 330.624 206.678 330.807C201.516 330.558 196.502 328.998 192.11 326.275C181.522 320.785 172.409 312.832 165.536 303.086C158.663 293.34 154.231 282.085 152.614 270.269C151.084 257.287 151.851 244.137 154.88 231.421C156.823 223.328 158.765 215.235 160.06 207.141C161.522 197.593 161.522 187.877 160.06 178.329C157.415 163.63 152.5 149.432 145.492 136.244C142.251 130.131 137.644 124.849 132.03 120.806C127.647 117.65 122.742 115.317 117.555 113.905C114.638 113.111 111.6 112.935 108.577 112.935H99.1984C80.8504 112.846 62.7508 117.177 46.43 125.561C36.6435 130.672 26.4682 135.002 15.9991 138.51C9.43053 140.242 2.7079 141.327 -4.07231 141.747H-11.6501C-11.9913 141.747 -12.3301 141.678 -12.664 141.608C-13.9104 141.346 -14.7555 142.599 -14.7555 143.872V175.155C-14.7555 176.278 -14.0027 177.373 -12.903 177.146C-12.6262 177.089 -12.3452 177.034 -12.0625 177.034H-10.3755C-9.62793 177.034 -8.88125 176.971 -8.14601 176.836C12.0646 173.119 31.1063 164.645 47.4012 152.107C54.5106 146.558 61.9721 141.475 69.7387 136.891C78.315 132.236 87.8325 129.58 97.5798 129.122H99.8459C106.322 128.812 112.76 130.277 118.465 133.358C124.17 136.438 128.926 141.018 132.219 146.603C140 159.829 143.925 174.967 143.55 190.307C143.556 200.149 142.249 209.947 139.665 219.443C136.435 231.031 134.908 243.026 135.133 255.054C135.124 274.221 139.093 293.181 146.787 310.736C150.864 319.012 155.977 326.735 162.003 333.721C171.391 345.375 180.455 357.353 191.138 368.36C195.251 372.784 199.688 376.896 204.412 380.662C213.948 387.819 222.164 396.583 228.691 406.561C236.331 418.199 245.116 429.044 254.914 438.934C262.319 445.833 270.101 452.318 278.223 458.358C285 463.227 290.199 469.971 293.185 477.753C293.357 478.201 293.551 478.644 293.809 479.05C295 480.92 297.254 481.667 299.47 481.667H331.555C334.33 481.667 337.424 480.793 338.113 478.105C340.431 469.834 344.77 462.269 350.739 456.092C363.331 442.182 373.409 426.189 380.522 408.827C384.274 397.228 389.847 386.301 397.032 376.453C403.577 368.445 411.079 361.27 419.37 355.087C429.406 346.994 439.765 338.9 451.743 331.778C457.401 327.919 464.006 325.68 470.844 325.304C474.537 325.361 478.177 326.198 481.524 327.761C484.871 329.323 487.851 331.574 490.267 334.368C495.637 340.452 500.206 347.197 503.864 354.44C510.015 366.741 514.547 380.014 519.403 392.64C522.604 400.832 526.28 408.831 530.41 416.596C533.982 422.518 535.249 429.547 533.971 436.344C532.335 447.059 531.469 457.878 531.382 468.717C531.382 471.631 531.382 474.221 531.382 476.811C531.382 479.269 534.299 479.724 536.758 479.724H562.969C566.015 479.724 569.409 478.987 570.553 476.163C572.406 471.376 574.796 466.815 577.675 462.566C581.377 457.266 586.192 452.84 591.784 449.596C597.377 446.353 603.61 444.371 610.049 443.79C614.905 443.79 620.084 443.79 625.264 443.79C636.118 443.725 646.947 442.75 657.637 440.876C664.634 439.462 670.966 435.774 675.65 430.388C680.334 425.001 683.106 418.218 683.536 411.093C684.508 403.354 684.508 395.523 683.536 387.784C682.517 379.321 678.83 371.402 673.01 365.174C667.189 358.947 659.537 354.733 651.163 353.145C647.4 352.687 643.595 352.687 639.832 353.145C630.705 353.219 621.723 355.437 613.61 359.619C605.84 363.504 598.394 368.684 590.625 373.216C587.125 375.37 583.441 377.212 579.618 378.72C575.996 380.502 571.999 381.39 567.963 381.309C561.406 381.027 555.04 379.017 549.511 375.482C541.56 370.397 534.908 363.524 530.087 355.411C523.172 343.952 517.008 332.057 511.634 319.8C509.338 314.899 506.398 310.327 502.893 306.203C500.351 303.201 497.173 300.801 493.59 299.178C490.007 297.554 486.108 296.747 482.174 296.815H478.937C464.699 297.138 451.134 302.935 441.06 313.002L392.5 356.706C381.516 366.948 372.516 379.131 365.954 392.64C361.569 402.803 355.433 412.117 347.825 420.157C339.961 428.882 329.092 434.316 317.394 435.373L-nan -nanL317.394 435.373C313.635 435.2 309.964 434.178 306.656 432.384C303.348 430.59 300.489 428.07 298.294 425.013C294.911 421.15 291.978 416.914 289.553 412.388C279.892 397.016 269.069 382.405 257.18 368.684C251.544 362.005 247.75 353.971 246.173 345.375C244.653 335.334 245.769 325.071 249.41 315.592C252.477 307.22 257.477 299.69 264.002 293.615C270.527 287.54 278.394 283.09 286.963 280.629C296.999 276.744 307.035 274.154 317.071 270.917C331.244 265.618 342.836 255.069 349.444 241.457C353.329 234.658 356.242 227.213 359.803 220.091C365.484 209.516 373.446 200.338 383.112 193.221C393.705 184.794 403.56 175.48 412.572 165.38C421.39 155.152 429.502 144.336 436.852 133.006C441.708 125.561 445.916 122.647 450.772 122.647C455.489 123.104 460.034 124.656 464.045 127.179C474.885 133.156 483.512 142.464 488.649 153.725C494.891 165.483 500.195 177.715 504.512 190.307C508.237 200.74 510.524 211.631 511.31 222.68C511.31 233.04 511.31 243.076 511.31 255.054C511.513 260.641 512.383 266.183 513.9 271.564C515.334 276.123 518.172 280.113 522.01 282.962C525.847 285.811 530.487 287.374 535.266 287.427C539.901 287.746 544.552 287.746 549.187 287.427C559.424 287.533 569.497 284.847 578.323 279.657C588.307 273.458 596.727 265.038 602.926 255.054C611.591 240.124 616.687 223.394 617.818 206.17C618.197 195.206 619.937 184.332 622.998 173.797C625.167 165.432 630.356 158.166 637.566 153.402C639.135 152.495 640.794 151.762 642.515 151.212C644.361 150.623 646.311 150.488 648.249 150.488C650.588 150.47 652.869 151.221 654.74 152.624C656.612 154.028 657.971 156.007 658.608 158.258C661.211 164.783 662.847 171.654 663.464 178.653C665.472 192.405 669.395 205.808 675.119 218.472C679.879 227.779 685.749 236.475 692.6 244.37C701.018 253.111 709.758 261.205 718.499 269.298C727.159 277.745 735.167 286.836 742.455 296.491C751.844 308.146 761.232 319.8 771.591 328.865L789.547 345.217C789.662 345.322 789.636 345.279 789.74 345.397C791.122 346.978 792.958 345.939 792.958 343.839V300.624C792.958 291.993 791.025 282.956 784.27 277.582C783.318 276.825 782.328 276.113 781.303 275.449C772.681 269.077 763.466 263.548 753.786 258.938C741.38 253.411 729.373 247.029 717.852 239.838C702.086 229.858 690.559 214.411 685.478 196.458C683.791 190.672 682.919 184.679 682.888 178.653C682.254 171.761 682.254 164.826 682.888 157.934C683.726 152.465 685.952 147.303 689.352 142.939C692.753 138.575 697.215 135.156 702.312 133.006C711.079 129.542 720.197 127.045 729.506 125.561C741.722 122.165 753.549 117.499 764.793 111.64C772.069 107.631 778.258 101.91 782.827 94.9726C787.396 88.0348 790.206 80.0886 791.015 71.8209C792.763 59.8086 790.607 47.5523 784.864 36.8578C780.721 30.0769 774.466 24.8448 767.059 21.9661C759.844 18.9215 752.367 16.5377 744.721 14.844C739.552 13.6818 734.469 12.1675 729.506 10.3117C724.501 7.94902 720.245 4.2526 717.204 -0.371436C715.456 -2.95787 712.259 -3.9325 709.138 -3.9325L694.635 -3.9325C690.507 -3.9325 686.038 -1.90876 686.126 2.21843C685.592 7.31609 684.394 12.3223 682.565 17.1101C682.021 19.1805 680.918 21.0612 679.376 22.546C677.834 24.0307 675.913 25.0622 673.824 25.5272C668.489 26.7315 663.082 27.5965 657.637 28.117L632.71 30.3832H624.293C611.217 30.7933 598.44 26.4193 588.358 18.0813C582.848 13.2406 578.292 7.41565 574.922 0.907783C574.594 0.274841 574.356 -0.406399 574.048 -1.04924C572.953 -3.33502 570.175 -3.9325 567.64 -3.9325L544.331 -3.9325C541.193 -3.9325 544.831 1.80651 546.111 4.67068C548.58 10.1915 551.791 15.3577 555.661 20.0237C567.179 34.1846 582.601 44.6531 600.013 50.1309C604.569 51.2816 609.236 51.9329 613.933 52.0733H627.854C632.056 51.751 636.277 51.751 640.479 52.0733C643.557 52.2339 646.573 53.0033 649.351 54.3369C652.129 55.6706 654.616 57.542 656.666 59.8428C658.231 61.89 659.435 64.1891 660.227 66.6412C662.899 75.7416 662.752 85.4381 659.805 94.4532C656.858 103.468 651.249 111.379 643.717 117.144C637.242 121.352 630.767 125.884 624.617 130.74C611.461 141.857 602.826 157.402 600.337 174.444C598.888 182.453 598.237 190.587 598.394 198.724C598.523 209.682 596.995 220.596 593.862 231.097C590.515 242.221 583.988 252.124 575.085 259.586C569.699 263.774 563.128 266.153 556.309 266.384C552.238 266.384 548.049 265.908 544.686 263.613C543.271 262.647 541.959 261.527 540.778 260.269C538.187 257.508 536.296 254.165 535.266 250.521C532.799 244.112 531.484 237.317 531.382 230.45C530.198 210.132 527.71 189.911 523.936 169.912C522.218 160.282 521.136 150.549 520.698 140.776C519.122 125.666 512.902 111.415 502.893 99.9857C498.037 94.1585 492.534 89.3025 487.678 83.7991C480.761 76.5981 475.947 67.6418 473.757 57.9004C471.491 49.4834 469.872 40.7426 467.606 32.3256C465.486 24.4494 460.531 11.7543 456.719 1.93257C456.216 0.634466 456.208 -0.823738 455.768 -2.14468C455.338 -3.4358 453.893 -3.9325 452.533 -3.9325L408.958 -3.9325Z" fill="white" fill-opacity="0.2"/>
<path d="M-12.1626 290.017L7.26134 292.931C28.7017 296.809 48.0175 308.306 61.6484 325.304C65.399 329.798 68.6551 334.682 71.3604 339.872C78.551 354.984 82.6246 371.389 83.3385 388.108L-nan -nanL83.3385 388.108C83.7123 398.495 85.2323 408.81 87.8708 418.863C90.248 428.895 95.677 437.943 103.41 444.762C108.596 448.829 114 452.611 119.597 456.092L125.748 460.301C131.828 464.294 137.221 469.239 141.722 474.943C142.106 475.43 142.905 477.783 142.905 478.404C142.905 478.759 142.617 479.077 142.261 479.077H114.417H108.59H104.705C103.331 478.886 101.944 478.811 100.56 478.853C98.7872 478.906 97.0029 479.018 95.239 479.207C88.7972 479.899 82.5083 482.315 76.0295 482.315H-4.87864C-10.5106 482.315 -15.0762 477.749 -15.0762 472.117V463.862C-15.0762 462.789 -14.2066 461.919 -13.1338 461.919C-10.6621 462.238 -8.1597 462.238 -5.68797 461.919H6.61388H19.4504C22.9706 461.919 26.4907 461.615 29.9168 460.807C36.6541 459.216 43.259 457.099 49.6703 454.474C53.2575 453.168 56.4503 450.965 58.9439 448.075C61.4376 445.184 63.1489 441.703 63.9146 437.963C65.8764 428.595 66.8529 419.046 66.8281 409.475C67.4757 400.206 67.4757 390.903 66.8281 381.634C66.3954 368.45 63.0804 355.522 57.1162 343.757C50.5595 329.96 38.9787 319.19 24.7429 313.65C17.6468 311.309 10.1989 310.213 2.72908 310.413H-11.8389C-13.6268 310.413 -15.0762 308.963 -15.0762 307.175V290.665M-13.997 289.765C-14.6614 290.319 -15.5804 290.402 -16.4451 290.382C-17.4009 290.361 -17.9898 291.291 -17.9898 292.246V310.046C-17.9898 311.052 -17.3773 312.031 -16.3711 312.031C-15.2744 312.031 -14.1878 311.707 -13.091 311.707H3.05282C10.3106 311.51 17.5455 312.607 24.4192 314.945C38.6466 320.155 50.2677 330.73 56.7924 344.404C62.9517 355.862 66.2816 368.627 66.5044 381.634C67.152 390.903 67.152 400.206 66.5044 409.475C66.4976 418.938 65.5213 428.375 63.5908 437.639C63.0061 441.194 61.4603 444.521 59.1207 447.26C56.7812 449.998 53.737 452.045 50.3178 453.179C41.8936 455.76 33.2064 457.389 24.4192 458.035H6.29014H-2.77437C-5.24676 458.343 -7.74783 458.343 -10.2202 458.035L-nan -nanL-10.2202 458.035C-10.8553 457.99 -11.4905 458.117 -12.0599 458.402C-13.1682 458.956 -13.4575 460.312 -13.4575 461.552V475.212C-13.4575 477.937 -15.5342 481.667 -12.8101 481.667H76.7014C82.9506 481.667 89.0084 479.34 95.2127 478.593C96.9925 478.378 98.7944 478.231 100.586 478.183C101.854 478.149 103.125 478.231 104.381 478.43C106.001 478.778 107.602 479.203 109.179 479.701C112.699 480.813 116.322 481.667 120.014 481.667H143.373C145.26 481.667 146.79 479.988 146.79 478.101C146.79 477.376 146.562 476.818 146.125 476.24C141.53 470.161 135.957 464.884 129.632 460.624C121.863 455.445 114.093 450.912 106.971 445.085C99.5407 438.39 94.343 429.576 92.0793 419.834C89.4046 409.228 87.7782 398.385 87.2233 387.461C86.545 370.736 82.4696 354.324 75.2452 339.225C72.4697 333.9 69.1033 328.904 65.2095 324.333C51.2983 307.18 31.6219 295.673 9.8512 291.96L-8.97349 287.905C-10.3734 287.604 -11.8342 287.963 -12.9344 288.88L-13.997 289.765Z" fill="white" fill-opacity="0.2"/>
<path d="M158.102 -3.9325H166.876C168.645 -3.9325 170.08 -3.1079 170.08 -1.33825C170.08 -1.1011 170.106 -0.254605 170.159 -0.0234351C172.526 10.3106 176.428 20.2325 181.734 29.412C184.648 34.5917 187.561 39.4477 190.151 44.6274L203.748 69.5548C208.605 79.6884 215.053 88.9785 222.848 97.0721C227.064 101.408 232.093 104.869 237.648 107.258C243.203 109.646 249.175 110.916 255.222 110.993H258.135C262.717 110.613 267.166 109.262 271.185 107.029C275.204 104.796 278.701 101.733 281.444 98.0433C287.904 88.3609 291.905 77.2485 293.098 65.67C293.098 57.5767 294.717 49.1597 295.364 41.3901V38.4765C295.364 26.1746 297.954 13.8728 299.573 2.21843V-0.047703C299.375 -1.52189 300.683 -2.63756 302.171 -2.63756H311.255C319.747 -2.63756 326.114 5.25069 322.706 13.0279C322.247 14.0745 321.766 15.1117 321.263 16.1389C314.87 30.8896 310.618 46.4786 308.638 62.4327C308.638 64.1565 308.505 65.8786 308.208 67.5766C306.439 77.7005 303.877 87.671 300.544 97.3958C298.957 103.797 295.972 109.767 291.803 114.877C288.412 118.707 284.215 121.739 279.513 123.754C274.812 125.769 269.722 126.718 264.61 126.532H261.262C258.104 126.532 254.941 126.308 251.87 125.571C243.54 123.571 235.603 120.152 228.413 115.452C219.896 109.886 212.605 102.64 206.985 94.1585C200.811 85.455 195.188 76.3727 190.151 66.965L-nan -nanL190.151 66.965L184.324 57.253C177.831 46.835 171.993 36.023 166.843 24.8797C162.449 15.7884 159.5 6.06756 158.102 -3.9325M167.897 -3.9325C162.674 -3.9325 158.58 0.625543 159.704 5.72652C161.105 12.085 163.17 18.2881 165.871 24.2322C172.384 38.9914 179.734 53.3669 187.885 67.2887C193.13 77.0959 199.081 86.509 205.691 95.4534C211.432 104.03 218.88 111.331 227.569 116.901C235.025 121.68 243.258 125.097 251.883 127.005C254.735 127.636 257.66 127.827 260.581 127.827H264.286C269.567 127.982 274.819 126.992 279.681 124.925C284.543 122.857 288.9 119.761 292.451 115.849C296.724 110.638 299.816 104.564 301.515 98.0433C305.228 86.0542 308.148 73.8339 310.256 61.4615C313.101 45.8836 317.999 30.752 324.824 16.4627C329.939 6.42373 321.311 -3.9325 310.044 -3.9325L305.621 -3.9325C302.779 -3.9325 299.594 -2.86873 299.249 -0.047703C297.082 12.5993 295.57 25.3498 294.717 38.1528C294.717 46.133 294.717 53.8946 293.28 61.7969C292.65 65.2627 292.076 68.7452 291.549 72.2281C290.076 81.9419 286.409 91.2179 280.797 99.3382C278.166 102.913 274.761 105.847 270.837 107.921C266.913 109.995 262.571 111.156 258.135 111.316H255.545C244.125 110.864 233.329 105.988 225.438 97.7196C217.706 89.7664 211.359 80.5749 206.662 70.526C199.54 56.9292 191.77 43.6562 184.648 30.3832C179.727 21.8898 176.018 12.7553 173.623 3.24507C173.182 1.49129 173.167 -0.422728 172.27 -1.99296C172.235 -2.05464 172.198 -2.11556 172.161 -2.1757C171.294 -3.56545 169.535 -3.9325 167.897 -3.9325Z" fill="white" fill-opacity="0.2"/>
<path d="M33.8044 -0.371436C35.6485 -2.62534 38.4069 -3.9325 41.3191 -3.9325H61.2718C68.0497 -3.9325 73.0409 2.45668 70.3862 8.69308C63.282 23.7955 52.0611 36.5873 38.0129 45.5986C30.1763 51.2218 20.7883 54.2757 11.1431 54.3394C8.34662 54.6604 5.52258 54.6604 2.72607 54.3394L-9.88993 52.447C-10.1118 52.4137 -10.3359 52.397 -10.5603 52.397C-13.056 52.397 -15.0792 50.3738 -15.0792 47.878V11.4231C-15.0792 9.80037 -13.974 8.23842 -12.3828 8.55622C-12.0214 8.62839 -11.6545 8.69308 -11.286 8.69308H14.3805C21.7402 8.12735 28.6434 4.90585 33.8044 -0.371436ZM40.0794 -3.9325C37.8876 -3.9325 35.7448 -3.28372 33.9211 -2.06791C33.1984 -1.58606 32.5417 -1.01371 31.9211 -0.405891C27.2115 4.20668 20.9887 6.98605 14.3805 7.39815H8.55326L-6.01471 6.75068H-10.547C-13.5734 6.46455 -15.0792 9.83003 -15.0792 12.87V33.3525C-15.0792 44.7159 -6.86396 54.4137 4.34474 56.2818C7.14124 56.6028 9.96528 56.6028 12.7618 56.2818C22.6715 56.3052 32.3234 53.1257 40.2791 47.2173C54.3967 38.0042 65.6199 24.9853 72.6523 9.66428C74.9739 2.74282 69.4478 -3.9325 62.1474 -3.9325L40.0794 -3.9325Z" fill="white" fill-opacity="0.2"/>
<path d="M459.823 6.42695C458.218 1.28878 462.056 -3.9325 467.439 -3.9325H481.001C482.59 -3.9325 484.261 -3.45596 485.014 -2.05736C485.404 -1.33457 485.644 -0.541189 485.722 0.276029L-nan -nanL485.722 0.276029C488.417 7.27364 492.491 13.6587 497.7 19.0525C498.449 19.9841 499.382 20.7521 500.44 21.3089C501.498 21.8657 502.659 22.1996 503.851 22.2898C505.129 22.2898 506.444 22.062 507.413 21.2281C507.987 20.7344 508.485 20.1535 508.888 19.5035C509.633 18.2993 510.019 16.9076 510.002 15.4915L-nan -nanL510.002 15.4915C510.314 11.8291 510.314 8.14687 510.002 4.48455C509.674 2.66468 509.674 0.800972 510.002 -1.0189L-nan -nanL510.002 -1.0189C510.002 -1.0189 510.002 -1.73408 510.002 -2.47569C510.002 -3.28026 510.654 -3.9325 511.459 -3.9325H527.539C535.364 -3.9325 542.011 1.40667 545.786 8.26095C546.723 9.96296 547.746 11.6199 548.85 13.2253C555.65 22.9604 564.35 31.2193 574.425 37.5053C584.063 44.2191 595.159 48.5465 606.798 50.1309H632.049C636.9 49.9334 641.743 50.7038 646.293 52.397C649.785 53.3524 652.927 55.297 655.339 57.9965C657.751 60.696 659.332 64.0354 659.89 67.6124C660.569 73.3115 660.569 79.0711 659.89 84.7702C659.602 90.5161 658.062 96.1296 655.378 101.218C653.695 104.409 651.588 107.344 649.121 109.949C646.197 113.037 643.079 116.011 640.607 119.472C637.741 123.484 634.176 126.985 630.107 129.769C615.295 140.602 605.212 156.711 601.942 174.768C600.545 183.333 599.787 191.989 599.676 200.667C599.676 203.58 599.676 206.494 599.676 209.731C599.326 221.571 596.34 233.183 590.935 243.723C588.39 249.966 584.338 255.481 579.141 259.774C574.944 263.241 570.107 265.824 564.919 267.386C562.445 268.13 559.85 268.327 557.267 268.327C552.142 267.897 547.276 265.893 543.335 262.59C539.394 259.286 536.571 254.845 535.253 249.874C532.172 241.091 530.214 231.954 529.426 222.68V218.472C529.152 210.341 528.396 202.233 527.16 194.192C524.246 176.387 521.009 155.991 519.066 135.92C517.827 120.945 511.418 106.868 500.937 96.1009L495.758 90.9212L487.017 81.8567C483.139 77.4677 480.07 72.4257 477.952 66.965C474.82 59.4185 472.329 51.6213 470.506 43.6562C467.671 31.0496 464.104 18.6188 459.823 6.42695ZM480.82 -3.9325C468.284 -3.9325 459.683 8.7509 463.597 20.6606C466.128 28.3624 468.432 36.1389 470.506 43.9799C472.064 52.0097 474.229 59.9098 476.981 67.6124C479.044 73.197 482.117 78.3546 486.046 82.8279L499.966 97.0721C510.306 107.51 516.614 121.273 517.771 135.92C519.714 155.668 522.627 175.092 525.865 194.192C527.483 203.904 527.807 213.94 528.455 223.652C528.881 232.628 530.292 241.53 532.663 250.198C534.254 255.499 537.502 260.151 541.929 263.471C546.357 266.792 551.732 268.607 557.267 268.65C560.065 268.65 562.875 268.419 565.541 267.571C570.774 265.907 575.655 263.26 579.919 259.759C585.269 255.366 589.49 249.757 592.23 243.399C597.441 232.486 600.098 220.529 599.999 208.436C600.057 196.736 600.922 185.054 602.589 173.473C604.417 164.58 607.99 156.139 613.102 148.637C618.215 141.135 624.765 134.722 632.373 129.769L649.854 117.144C654.714 113.244 658.655 108.322 661.397 102.726C664.139 97.1311 665.614 91.0003 665.717 84.7702C666.364 78.961 666.364 73.0979 665.717 67.2887C665.143 63.4596 663.456 59.8837 660.866 57.0058C658.276 54.1279 654.897 52.0748 651.149 51.1021C646.46 49.5147 641.531 48.7481 636.581 48.8359H611.654C600.012 47.4745 588.889 43.2478 579.281 36.5341C569.226 30.4746 560.609 22.3001 554.029 12.5779C546.436 3.85956 536.615 -3.9325 525.053 -3.9325L511.944 -3.9325C510.326 -3.9325 511.944 -1.0189 511.944 0.599762C512.267 5.99047 512.267 11.3957 511.944 16.7864C511.944 18.9493 511.944 21.3381 509.87 22.6326C508.958 23.2013 507.839 23.261 506.765 23.261C505.742 23.177 504.75 22.8732 503.856 22.3703C502.962 21.8675 502.187 21.1774 501.585 20.3475C496.463 15.0079 492.399 8.74669 489.607 1.89469C489.143 0.544173 488.376 -0.682665 487.367 -1.69245C487.058 -2.00131 486.729 -2.28737 486.382 -2.54896C484.818 -3.72893 482.779 -3.9325 480.82 -3.9325Z" fill="white" fill-opacity="0.2"/>
<path d="M470.52 326.274C475.77 326.297 480.874 327.998 485.088 331.13C489.607 334.831 493.536 339.197 496.742 344.079C503.429 355.212 509.002 366.975 513.382 379.198C513.729 380.165 513.9 381.185 513.9 382.212C513.9 383.327 514.103 384.432 514.506 385.471C518.588 395.987 523.249 406.27 528.468 416.271C531.936 422.114 533.091 429.044 531.705 435.695C530.15 446.415 529.392 457.236 529.439 468.069C529.391 468.492 529.357 468.917 529.338 469.342C529.281 470.605 529.439 473.542 529.439 474.806C529.439 475.686 528.726 476.809 527.847 476.809H498.079C495.968 476.809 493.843 476.089 492.626 474.363C492.396 474.036 492.179 473.699 491.975 473.353C491.69 472.867 491.563 472.307 491.563 471.743C491.563 471.036 491.351 470.346 490.964 469.754C487.295 464.142 484.239 458.15 481.851 451.882C475.45 432.496 473.243 411.971 475.376 391.668V388.754C476.022 382.62 476.022 376.435 475.376 370.301C474.978 366.178 473.074 362.346 470.028 359.539C466.982 356.732 463.008 355.146 458.866 355.086C457.142 355.086 455.418 355.209 453.726 355.539C444.151 357.411 435.015 361.1 426.816 366.417C420.994 370.029 415.755 374.504 411.277 379.69C403.692 388.63 398.166 399.13 395.09 410.444C388.904 430.874 383.824 451.623 379.875 472.601L-nan -nanL379.875 472.601C379.875 473.315 379.875 473.898 379.875 474.382C379.875 475.365 379.078 476.162 378.094 476.162H354.722C345.74 476.162 338.913 467.741 343.94 460.299C347.371 455.475 351.044 450.829 354.947 446.378C361.6 438.87 367.358 430.613 372.105 421.775C375.622 415.383 378.756 408.789 381.493 402.027C383.165 397.594 385.111 393.269 387.321 389.078C392.688 378.117 400.169 368.325 409.334 360.266C421.428 349.407 434.305 339.452 447.859 330.482C452.56 326.906 457.967 324.369 463.722 323.036C466.194 322.721 468.695 322.721 471.167 323.036M471.167 324.658C471.167 323.763 470.441 323.036 469.545 323.036H464.147C463.649 323.036 463.152 323.087 462.667 323.201C457.065 324.519 451.799 326.998 447.211 330.482C433.698 339.769 420.728 349.821 408.363 360.589C399.085 368.748 391.496 378.647 386.026 389.725C380.846 400.732 376.637 412.063 370.81 422.099C366.1 430.781 360.455 438.922 353.976 446.378C350.033 450.795 346.357 455.443 342.969 460.299C337.192 468.652 345.029 478.104 355.186 478.104H377.609C379.875 478.104 379.875 475.191 380.199 473.248C384.299 451.666 389.479 430.947 395.738 411.092C398.78 399.927 404.19 389.548 411.601 380.661C415.972 375.583 421.105 371.215 426.816 367.711C434.801 362.5 443.724 358.912 453.076 357.141C454.769 356.82 456.494 356.705 458.218 356.705C462.068 356.771 465.757 358.266 468.568 360.897C471.379 363.529 473.113 367.111 473.434 370.949C474.404 377.929 474.404 385.011 473.434 391.991C471.354 412.508 473.559 433.233 479.908 452.853C482.234 458.972 485.221 464.816 488.817 470.281C489.553 471.401 490.159 472.607 490.813 473.776C492.766 477.266 496.972 478.428 500.971 478.428H525.231C530.773 478.428 535.266 473.935 535.266 468.392C535.23 458.89 535.89 449.399 537.242 439.997C537.624 437.344 537.962 434.665 537.676 432C537.097 426.599 535.164 421.408 532.029 416.919C526.247 406.476 521.164 395.661 516.814 384.546C512.127 370.642 505.94 357.29 498.361 344.726C495.255 339.576 491.189 335.069 486.383 331.453C482.44 328.443 477.707 326.668 472.781 326.332C471.89 326.271 471.167 325.552 471.167 324.658Z" fill="white" fill-opacity="0.2"/>
<path d="M458.883 359.618C460.629 359.6 462.361 359.934 463.974 360.602C465.588 361.269 467.049 362.256 468.272 363.503C470.782 366.4 472.609 369.825 473.618 373.523C474.186 375.605 474.486 377.744 474.516 379.889C474.564 383.219 474.099 386.545 474.099 389.876C474.099 391.719 474.099 393.519 474.099 395.229V408.178C473.92 416.639 474.57 425.096 476.041 433.429C477.255 446.013 481.234 458.174 487.696 469.04L489.638 471.63C492.278 475.583 489.058 480.371 484.304 480.371H426.401C401.886 480.371 383.042 458.253 389.928 434.724L392.194 426.307C395.217 408.029 404.076 391.22 417.446 378.395C428.368 368.091 442.343 361.615 457.265 359.942H458.883M459.208 359.129C459.012 359.62 458.537 359.942 458.008 359.942H457.265C442.036 361.771 427.767 368.339 416.474 378.719C403.03 391.795 394.077 408.795 390.899 427.279C385.736 445.173 381.522 463.327 378.274 481.666L-nan -nanL378.274 481.666H480.607C487.655 481.666 492.438 474.581 488.155 468.984C487.853 468.589 487.57 468.176 487.326 467.743C481.323 457.079 477.59 445.287 476.365 433.106C474.903 424.88 474.252 416.531 474.422 408.178C474.422 400.409 474.422 392.639 476.041 384.87C476.771 380.923 476.597 376.863 475.531 372.994C474.466 369.125 472.537 365.548 469.89 362.532C468.526 361.183 466.908 360.116 465.13 359.394C463.621 358.781 462.021 358.426 460.398 358.342C459.874 358.315 459.403 358.642 459.208 359.129Z" fill="white" fill-opacity="0.2"/>
<path d="M10.1719 328.541C12.534 328.205 14.9319 328.205 17.294 328.541C25.3279 330.038 32.7205 333.931 38.499 339.71C44.2775 345.488 48.1711 352.881 49.6673 360.915C53.196 374.173 53.196 388.123 49.6673 401.381C48.2646 408.621 44.8468 415.317 39.807 420.701C34.7673 426.084 28.3103 429.936 21.1788 431.812C10.5469 434.099 -0.324914 435.078 -11.1944 434.726C-13.3399 434.726 -15.0792 432.986 -15.0792 430.841V412.712C-15.0792 411.281 -13.9197 410.122 -12.4894 410.122H-6.01471C-2.56906 410.444 0.899093 410.444 4.34474 410.122C13.0402 408.687 20.8729 404.021 26.2753 397.058C31.6776 390.095 34.2511 381.348 33.4807 372.569C33.6272 367.073 31.7705 361.71 28.2564 357.482C25.5057 354.172 21.8865 351.733 17.8393 350.416C15.5853 349.682 13.1898 349.584 10.8194 349.584H5.9634C0.302066 350.346 -5.26483 351.691 -10.6486 353.597C-11.0102 353.725 -11.3906 353.792 -11.7742 353.792C-13.5995 353.792 -15.0792 352.313 -15.0792 350.487V339.603C-15.0792 335.103 -11.4314 331.455 -6.93147 331.455C-6.32222 331.455 -5.71533 331.384 -5.11945 331.257C-0.626078 330.3 3.9573 329.823 8.55326 329.836M9.21929 329.614C8.78015 329.761 8.31528 329.812 7.85413 329.772C3.13172 329.36 -1.61896 329.382 -6.33844 329.836C-11.2669 330.201 -15.0792 334.306 -15.0792 339.248V353.423C-15.0792 354.052 -14.7374 354.7 -14.108 354.7C-13.4418 354.7 -12.7861 354.44 -12.1198 354.44H-11.5874C-11.1114 354.44 -10.6375 354.38 -10.1748 354.268C-4.88737 352.99 0.523504 352.288 5.9634 352.174H10.8194C13.1886 352.174 15.5859 352.295 17.8166 353.094C21.5416 354.428 24.8539 356.763 27.3704 359.875C29.7139 362.772 31.2555 366.204 31.8807 369.829C32.3758 372.7 32.4704 375.64 32.4489 378.553C32.4282 381.345 32.0465 384.128 31.3085 386.833C30.1856 390.95 28.2601 394.804 25.6427 398.173C23.0253 401.543 19.7676 404.362 16.0569 406.468C12.3463 408.574 8.25592 409.926 4.021 410.446H-10.547C-13.7968 410.446 -15.0792 413.835 -15.0792 417.085V436.021C-15.0792 437.451 -13.9197 438.61 -12.4894 438.61C-1.61873 439.003 9.25802 438.024 19.8839 435.697C27.3816 433.694 34.1453 429.577 39.3685 423.837C44.5918 418.097 48.0544 410.976 49.3436 403.324C52.91 389.741 52.91 375.468 49.3436 361.886C47.6478 353.941 43.6887 346.656 37.9442 340.912C32.1997 335.167 24.9153 331.208 16.9703 329.512C14.6049 329.208 12.2115 329.195 9.84373 329.473C9.63124 329.498 9.42226 329.547 9.21929 329.614Z" fill="white" fill-opacity="0.2"/>
<path d="M11.1431 350.231C15.36 350.411 19.4129 351.915 22.7257 354.53C26.0384 357.146 28.4424 360.739 29.5959 364.799C31.0253 369.479 31.447 374.408 30.8332 379.263C30.2194 384.117 28.584 388.787 26.0348 392.964C23.8756 396.712 20.9869 399.99 17.5395 402.603C14.0921 405.217 10.1559 407.113 5.9634 408.179C1.02016 408.819 -3.98506 408.819 -8.9283 408.179C-12.3254 408.179 -15.0792 405.425 -15.0792 402.028V358.144C-15.0792 356.634 -13.8553 355.411 -12.3456 355.411C-12.0126 355.411 -11.6826 355.349 -11.3706 355.233C-4.88145 352.815 1.95457 351.454 8.877 351.202M10.7153 349.531C9.54308 350.597 7.98057 351.115 6.39838 351.034C0.7377 350.744 -4.93991 351.105 -10.5229 352.11C-10.7544 352.151 -10.989 352.173 -11.2242 352.173C-13.3533 352.173 -15.0792 353.899 -15.0792 356.028V401.057C-15.0792 405.169 -11.7456 408.503 -7.63337 408.503C-2.69013 409.143 2.31509 409.143 7.25833 408.503C11.8818 407.237 16.2054 405.059 19.9744 402.097C23.7435 399.136 26.8818 395.449 29.2046 391.256C31.5275 387.063 32.9879 382.448 33.4999 377.681C34.0118 372.915 33.565 368.095 32.1858 363.504C30.9578 359.16 28.3855 355.316 24.8377 352.524C21.9023 350.215 18.4238 348.723 14.7552 348.18C13.2791 347.961 11.8195 348.527 10.7153 349.531Z" fill="white" fill-opacity="0.2"/>
<path d="M189.525 133.977H190.3C192.146 133.977 193.987 134.246 195.722 134.878C201.315 136.916 206.631 139.658 211.539 143.041L-nan -nanL211.539 143.041C222.869 150.487 234.524 157.933 243.912 165.379C250.295 169.243 256.207 173.828 261.533 179.04C263.643 181.104 265.881 183.046 267.924 185.177C269.97 187.312 271.697 189.743 273.042 192.395C275.057 196.37 276.165 200.743 276.285 205.198C276.22 208.545 275.435 211.839 273.982 214.856C272.53 217.873 270.444 220.541 267.868 222.679C262.13 228.674 255.462 233.703 248.12 237.571L243.912 239.837C235.171 244.693 226.43 249.873 218.013 255.7C215.643 257.366 213.196 258.921 210.683 260.361C208.906 261.378 206.948 262.152 204.903 262.054C203.711 261.997 202.502 261.93 201.343 261.647C197.912 260.81 195.954 257.434 195.676 252.139C195.393 248.151 195.393 244.149 195.676 240.161C197.933 228.785 198.237 217.121 196.587 205.668C196.075 202.11 195.812 198.487 194.925 195.005C193.869 190.861 191.95 186.703 190.82 182.86C189.201 177.357 186.935 169.587 185.64 163.113C183.764 156.26 182.892 149.172 183.05 142.07C183.05 135.919 185.64 132.682 190.172 132.682M189.525 133.005C189.686 132.925 189.627 132.694 189.447 132.706C184.721 133.029 182.064 136.582 181.755 143.365C181.656 150.571 182.527 157.758 184.345 164.731C186.935 177.357 191.467 189.335 194.381 201.96C196.971 214.998 196.971 228.418 194.381 241.456C194.061 245.442 194.061 249.448 194.381 253.434C194.381 259.345 196.834 263.027 200.63 264.107C202.242 264.566 203.947 264.695 205.623 264.727C207.63 264.765 209.547 264.011 211.303 263.039C213.859 261.625 216.317 260.038 218.661 258.29C228.373 251.492 238.732 245.988 249.092 240.161C256.638 235.523 263.32 229.607 268.839 222.679C273.454 218.143 276.124 211.99 276.285 205.521C276.395 201.229 275.651 196.958 274.095 192.956C272.538 188.955 270.202 185.303 267.221 182.213C261.077 175.723 254.112 170.064 246.502 165.379L211.539 142.717C205.77 138.787 199.502 135.646 192.901 133.377C192.809 133.345 192.713 133.329 192.616 133.329H189.601C189.421 133.329 189.364 133.086 189.525 133.005Z" fill="white" fill-opacity="0.2"/>
<path d="M429.724 410.119C430.346 410.152 430.955 410.313 431.512 410.592C432.068 410.87 432.562 411.26 432.962 411.738C435.063 413.943 436.438 416.738 436.901 419.748C437.364 422.758 436.893 425.838 435.551 428.572C435.001 430.006 434.084 431.269 432.89 432.235C432.044 432.92 431.081 433.439 430.051 433.768C429.206 434.038 428.34 434.301 427.457 434.39C425.938 434.542 424.562 433.582 423.661 432.35C423.053 431.52 422.55 430.614 422.166 429.653C421.494 427.974 421.201 426.168 421.307 424.364C421.32 422.024 421.883 419.721 422.952 417.64C423.674 416.233 424.613 414.955 425.731 413.85C426.779 412.814 428.251 412.386 429.724 412.386M429.724 411.686C429.724 412.04 429.389 412.299 429.038 412.252C428.423 412.17 427.798 412.186 427.187 412.302C426.937 412.349 426.704 412.462 426.503 412.618C424.844 413.908 423.451 415.51 422.402 417.334C421.29 419.27 420.59 421.416 420.347 423.635C420.103 425.855 420.322 428.101 420.989 430.232C421.393 431.523 421.956 432.755 422.663 433.9C423.581 435.388 424.899 436.655 426.561 437.202C428.178 437.734 429.965 437.555 431.496 436.81C432.231 436.452 432.925 436.007 433.56 435.482C434.858 434.41 435.874 433.039 436.523 431.486C438.018 428.567 438.572 425.256 438.108 422.01C437.644 418.763 436.186 415.74 433.933 413.357C433.418 412.717 432.78 412.187 432.058 411.798C431.51 411.503 430.922 411.294 430.314 411.176C430 411.115 429.724 411.367 429.724 411.686Z" fill="white" fill-opacity="0.2"/>
<path d="M94.323 173.795C96.2306 173.82 98.099 174.34 99.7448 175.305C101.391 176.27 102.757 177.646 103.711 179.298C105.009 181.374 105.889 183.683 106.301 186.097C107.276 193.077 107.276 200.159 106.301 207.139C106.301 209.082 106.301 211.024 106.301 212.967C105.519 222.014 105.519 231.112 106.301 240.16V246.311C106.301 254.404 106.301 263.145 106.301 271.562C106.757 280.024 105.547 288.494 102.74 296.49C100.798 301.346 98.2077 303.935 93.9992 303.935C91.4263 303.935 88.8485 303.569 86.4889 302.544C83.3474 301.178 80.3704 299.454 77.6179 297.405C77.1105 297.027 76.4979 296.813 75.8653 296.813C75.2387 296.813 74.6297 296.606 74.1331 296.224L37.0223 267.677C33.7079 265.231 30.6588 262.453 27.9212 259.388C25.4447 256.616 22.8073 253.929 20.7565 250.829C18.6515 247.646 17.3914 243.943 17.1469 240.071C16.7837 234.321 18.6892 228.658 22.4543 224.297C24.534 221.243 27.1697 218.607 30.2239 216.528L45.4393 205.197C54.5038 198.722 63.5683 191.924 71.9854 184.802C77.2208 179.785 83.4007 175.859 90.1651 173.252C90.3466 173.182 90.5337 173.126 90.7253 173.093C91.9166 172.887 93.1368 172.905 94.323 173.147L-nan -nanL94.323 173.147M94.323 172.349C94.323 172.79 93.9654 173.147 93.5243 173.147H90.7488C90.3292 173.147 89.9123 173.22 89.52 173.369C82.6194 175.99 76.3224 179.99 71.0142 185.126C57.7412 196.456 43.1732 206.168 29.5764 217.499C26.3883 219.768 23.5521 222.495 21.1594 225.592C17.3656 230.249 15.4597 236.162 15.8195 242.157C16.1792 248.153 18.7783 253.795 23.1018 257.965C26.9945 262.324 31.4594 266.135 36.3748 269.296C49.3241 279.008 62.5971 288.396 75.8702 297.785C78.9852 300.11 82.3443 302.082 85.8848 303.666C88.427 304.804 91.214 305.23 93.9992 305.23C96.369 305.14 98.6413 304.264 100.458 302.74C102.275 301.216 103.534 299.131 104.035 296.813C106.843 288.706 108.052 280.13 107.596 271.562C107.596 260.879 107.596 250.52 107.596 239.189C106.949 230.136 106.949 221.048 107.596 211.995C108.889 203.085 108.889 194.036 107.596 185.126C107.074 182.538 106.203 180.033 105.006 177.68C103.877 175.847 102.309 174.325 100.443 173.251C98.8154 172.314 97.006 171.744 95.1414 171.576C94.6939 171.536 94.323 171.899 94.323 172.349Z" fill="white" fill-opacity="0.2"/>
<path d="M445.562 200.988C448.141 200.988 450.76 201.217 453.089 202.325C454.45 202.972 455.741 203.766 456.938 204.694C459.162 206.418 461.018 208.57 462.396 211.024C463.896 213.591 464.843 216.443 465.178 219.398C465.512 222.352 465.226 225.344 464.338 228.181C462.704 233.004 460.055 237.419 456.569 241.131C453.254 244.93 449.685 248.5 445.886 251.814L440.059 257.641C427.958 270.216 416.504 283.398 405.743 297.137C398.153 306.507 389.205 314.69 379.197 321.416C373.427 325.045 366.884 327.263 360.097 327.891C358.601 328.045 357.092 327.796 355.726 327.17C354.36 326.544 353.186 325.563 352.327 324.33C351.47 322.914 351.017 321.291 351.017 319.636C351.017 319.308 351.035 318.981 351.07 318.657C351.354 316.04 352.797 313.702 354.009 311.365C355.299 308.879 356.794 306.502 358.478 304.259C369.977 289.431 378.947 272.804 385.024 255.051C388.74 243.859 394.812 233.593 402.829 224.944C410.978 217.094 420.12 210.346 430.023 204.873C434.608 202.32 439.685 200.775 444.915 200.34L-nan -nanL444.915 200.34M444.915 200.34C439.444 200.814 434.142 202.471 429.375 205.196C419.277 210.515 410.007 217.277 401.858 225.268C393.482 234.576 387.289 245.636 383.729 257.641C377.272 274.226 368.32 289.729 357.183 303.611C355.782 305.402 354.524 307.297 353.421 309.279C351.622 312.508 349.468 315.843 349.432 319.539C349.431 319.571 349.431 319.604 349.431 319.636C349.431 321.535 349.988 323.392 351.032 324.978C351.968 326.408 353.276 327.557 354.817 328.298C356.357 329.04 358.071 329.347 359.773 329.186L-nan -nanL359.773 329.186C366.728 328.646 373.423 326.303 379.197 322.388C389.377 315.751 398.353 307.431 405.743 297.784C416.75 284.511 427.757 271.562 440.059 259.26C445.562 253.756 451.389 248.577 456.569 242.749C460.235 238.868 462.998 234.225 464.662 229.153C466.365 223.229 465.652 216.871 462.679 211.472C460.441 207.406 457.059 204.133 452.999 202.025C450.331 200.64 447.273 200.34 444.267 200.34H444.915Z" fill="white" fill-opacity="0.2"/>
<path d="M398.004 481.667C395.133 480.427 392.585 478.544 390.558 476.163L387.32 473.249C383.058 469.624 379.254 465.493 375.99 460.948C373.144 456.65 371.365 451.734 370.802 446.61C370.239 441.486 370.908 436.301 372.753 431.488C375.238 423.31 378.266 415.307 381.817 407.532L384.731 400.733C390.474 387.772 394.711 374.194 397.356 360.267C398.322 354.259 397.983 348.114 396.363 342.249C394.743 336.384 391.88 330.936 387.968 326.275C384.559 322.185 380.306 318.882 375.501 316.59C370.695 314.299 365.45 313.075 360.127 313.002H352.427C349.579 313.002 346.634 312.981 344.095 311.692C342.825 311.047 341.657 310.202 340.637 309.183C338.601 307.147 337.264 304.516 336.818 301.671C336.326 298.344 336.326 294.963 336.818 291.635C337.086 282.648 336.544 273.656 335.2 264.766C334.564 255.429 331.226 246.48 325.593 239.007C319.959 231.534 312.274 225.862 303.474 222.68L292.143 219.443L273.367 211.35C258.433 204.249 245.849 193.014 237.109 178.976L233.224 172.826C230.086 167.059 226.515 161.54 222.541 156.315C220.626 152.992 217.898 150.209 214.614 148.227C211.33 146.246 207.597 145.13 203.764 144.985C198.345 145.188 193.084 146.867 188.549 149.841C178.178 155.757 169.381 164.081 162.902 174.11C156.423 184.139 152.45 195.579 151.319 207.465C150.083 218.474 150.428 229.592 152.335 240.482C153.055 244.593 153.586 248.744 153.586 252.917C153.586 252.982 153.586 253.046 153.586 253.111C153.586 255.377 156.175 264.766 157.147 270.917C158.722 280.347 158.722 289.974 157.147 299.405C154.597 313.923 149.675 327.923 142.579 340.843C139.427 346.964 134.833 352.226 129.193 356.174C123.552 360.123 117.036 362.638 110.205 363.504H96.6086C79.4743 363.343 62.5776 359.478 47.0774 352.173L39.6316 348.612C32.4381 345.091 24.967 342.168 17.294 339.872C10.7423 338.004 4.0169 336.811 -2.77738 336.311C-8.14116 336.311 -12.4894 331.962 -12.4894 326.599V306.33C-12.4894 305.008 -11.4182 303.937 -10.0969 303.937C-9.96553 303.937 -9.83427 303.948 -9.70468 303.97C10.6533 307.386 29.8374 315.832 46.1063 328.541C53.2777 334.317 60.9728 339.411 69.0913 343.756C77.7003 348.66 87.3569 351.435 97.256 351.85H99.5221C106.032 351.922 112.448 350.287 118.128 347.106C123.809 343.924 128.556 339.309 131.895 333.721C139.354 320.801 143.471 306.224 143.874 291.312C143.761 281.372 142.457 271.481 139.989 261.852C136.909 249.036 135.71 235.841 136.428 222.68C136.162 203.827 139.684 185.112 146.787 167.646C150.735 159.372 155.741 151.645 161.679 144.661L168.477 136.244C175.599 127.503 182.721 118.762 190.491 110.345C194.481 105.896 198.93 101.881 203.764 98.367C213.478 91.051 221.81 82.0617 228.368 71.8209C236.061 60.3103 244.725 49.4796 254.266 39.4477C261.283 33.5287 268.633 28.0162 276.28 22.9373L279.518 20.3475C286.448 15.1515 291.703 8.04129 294.637 -0.103681C294.701 -0.280609 294.733 -0.467522 294.733 -0.655584C294.733 -1.57141 295.475 -2.31383 296.391 -2.31383H331.791C332.87 -2.31383 333.934 -1.62825 333.795 -0.558095C333.722 -0.00357366 333.657 0.567966 333.811 1.10548C336.17 9.32203 340.54 16.8266 346.53 22.9373C359.029 36.6126 369.003 52.3962 375.99 69.5548C380.045 81.0864 385.713 91.9856 392.824 101.928C399.452 109.859 406.944 117.026 415.161 123.294L420.665 127.503C429.082 133.978 437.499 140.776 446.564 146.603C452.41 150.615 459.235 152.964 466.311 153.402C470.194 153.444 474.037 152.624 477.564 151.001C481.092 149.377 484.214 146.991 486.706 144.013C492.157 137.874 496.733 131.011 500.303 123.618C504.835 114.23 508.72 104.842 512.281 95.4534L516.166 85.094C520.678 76.6628 525.761 68.5506 531.382 60.814C535.238 54.5233 536.623 47.0247 535.266 39.7714C533.677 29.0508 532.811 18.2352 532.676 7.39815C532.676 5.77948 532.676 4.48455 532.676 3.18962C532.925 1.13396 534.5 -0.695168 536.571 -0.695168H563.906C566.329 -0.695168 568.965 -0.0140591 569.906 2.21843C571.673 7.04336 574.068 11.6148 577.028 15.8152C580.711 21.1894 585.509 25.7065 591.096 29.0584C596.682 32.4104 602.926 34.5186 609.401 35.2392H635.3C643.011 35.352 650.7 36.11 658.285 37.5053C664.952 39.0555 670.957 42.6794 675.436 47.8562C679.914 53.033 682.637 59.4963 683.212 66.3175C684.366 73.9357 684.366 81.6843 683.212 89.3025C681.94 97.4316 678.119 104.947 672.301 110.765C666.483 116.583 658.968 120.403 650.839 121.676C647.185 122.15 643.486 122.15 639.832 121.676C630.916 121.56 622.154 119.342 614.257 115.201C608.754 112.611 603.25 109.05 597.747 105.813L591.272 101.604C587.773 99.4485 584.089 97.6068 580.265 96.1009C576.373 94.4421 572.194 93.5622 567.963 93.511C561.193 93.7255 554.601 95.7366 548.863 99.3382C540.7 104.647 533.839 111.729 528.792 120.057C524.309 127.487 520.178 135.121 516.409 142.934C514.927 146.008 513.807 149.24 512.98 152.55L512.695 153.691C511.989 156.515 511.116 159.31 509.738 161.874C507.938 165.224 505.75 168.357 503.217 171.207C500.758 174.118 497.679 176.442 494.207 178.01C490.734 179.579 486.955 180.351 483.145 180.271H480.232C466.356 179.887 453.153 174.212 443.326 164.408L425.845 148.869L393.471 120.705C382.491 110.583 373.49 98.5074 366.925 85.094L-nan -nanL366.925 85.094C362.69 75.0239 356.656 65.8092 349.12 57.9004C340.731 48.7473 329.136 43.1815 316.747 42.3613C312.804 42.4736 308.94 43.4964 305.459 45.3497C301.977 47.2029 298.971 49.8365 296.675 53.0445C293.203 57.027 290.164 61.3679 287.611 65.9938C278.017 81.4117 267.191 96.0275 255.238 109.698C249.434 116.432 245.524 124.588 243.907 133.33C242.333 143.583 243.448 154.069 247.144 163.761C250.441 172.295 255.756 179.903 262.634 185.935C268.481 191.064 275.311 194.923 282.689 197.29C285.291 198.124 287.903 198.936 290.462 199.896C295.015 201.603 299.568 203.047 304.121 204.228L316.747 208.112C330.894 213.108 342.517 223.453 349.12 236.925C351.386 240.809 353.329 245.018 355.271 248.903C357.213 252.788 358.185 255.054 359.479 257.967C365.263 268.748 373.328 278.139 383.112 285.484C393.65 293.857 403.501 303.059 412.572 313.002C421.311 323.214 429.316 334.032 436.528 345.375C441.708 353.145 446.24 356.382 451.743 356.382C456.557 355.906 461.203 354.357 465.34 351.85C476.525 345.818 485.403 336.257 490.591 324.656C496.502 312.606 501.585 300.167 505.807 287.427C509.531 276.994 511.819 266.103 512.605 255.054C512.605 249.226 512.605 243.723 512.605 238.543C512.605 233.364 512.605 228.831 512.605 223.975C512.767 218.513 513.527 213.085 514.871 207.789C515.865 203.032 518.404 198.739 522.093 195.577C525.782 192.414 530.414 190.562 535.266 190.307C539.896 189.857 544.558 189.857 549.187 190.307C559.227 190.151 569.105 192.845 577.675 198.077C587.615 204.535 595.836 213.312 601.632 223.652C610.154 238.431 615.347 254.893 616.847 271.888V276.096C617.065 285.541 618.59 294.911 621.379 303.937C623.787 312.538 629.182 319.998 636.595 324.98C638.155 325.971 639.824 326.774 641.565 327.375C643.6 328.076 645.772 328.217 647.925 328.217C650.505 328.213 653.018 327.399 655.11 325.888C657.201 324.378 658.765 322.248 659.58 319.8C661.879 313.562 663.57 307.117 664.629 300.555C664.718 300.005 664.759 299.449 664.759 298.892C664.759 298.371 664.796 297.851 664.872 297.336C666.877 283.847 670.761 270.704 676.414 258.291C680.985 249.148 686.755 240.656 693.572 233.04C700.046 225.918 707.168 219.443 713.643 213.292L719.47 208.112C728.138 199.673 736.147 190.582 743.426 180.919C752.474 169.548 762.204 158.737 772.562 148.546C777.661 143.765 783.387 138.358 790.359 132.323C790.573 132.138 790.847 132.035 791.13 132.035C791.782 132.035 792.31 132.563 792.31 133.215V177.976C792.31 186.054 790.63 194.575 784.276 199.563C783.327 200.307 782.335 201 781.303 201.638C772.57 207.747 763.369 213.16 753.786 217.824L746.664 221.385C736.721 226.034 727.096 231.333 717.852 237.248C701.958 247.385 690.416 263.083 685.478 281.276C683.869 287.189 682.999 293.278 682.888 299.405V302.642C682.256 308.561 682.256 314.529 682.888 320.448C683.628 326.16 685.877 331.571 689.406 336.124C692.934 340.676 697.613 344.205 702.96 346.346C708.045 348.605 713.292 350.477 718.655 351.946C720.901 352.561 723.243 352.718 725.563 352.516C728.17 352.29 730.8 352.526 733.304 353.288C744.027 356.551 754.454 360.727 764.469 365.77C771.611 369.709 777.677 375.341 782.136 382.17C786.595 389 789.31 396.819 790.044 404.942C791.79 416.641 789.628 428.589 783.893 438.934C780.037 445.51 774.12 450.63 767.059 453.502C761.932 455.61 756.673 457.38 751.316 458.801C749.949 459.163 748.539 459.329 747.125 459.329C745.53 459.329 743.94 459.54 742.414 460.001C738.473 461.193 734.597 462.589 730.801 464.185C725.474 466.622 720.974 470.559 717.852 475.516C716.734 477.464 714.368 478.105 712.122 478.105H694.543C692.397 478.105 690.658 476.366 690.658 474.221C689.926 469.053 688.734 463.961 687.097 459.005C686.345 456.868 685.104 454.936 683.475 453.363C681.845 451.789 679.871 450.618 677.709 449.941C672.155 448.738 666.533 447.873 660.875 447.351L635.947 445.085H627.53C613.612 444.378 599.949 449.01 589.33 458.034C583.482 463.3 578.749 469.685 575.409 476.811C574.468 479.043 571.832 479.724 569.409 479.724H548.525C547.46 479.724 546.597 479.393 546.597 478.328C546.597 478.104 546.636 477.35 546.713 477.141C549.286 470.126 552.963 463.567 557.604 457.71C569.334 443.325 585.31 433.014 603.25 428.251C607.678 427.014 612.249 426.361 616.847 426.308H630.768C635.079 426.596 639.405 426.596 643.717 426.308C646.918 426.137 650.054 425.334 652.943 423.945C655.833 422.556 658.418 420.609 660.551 418.215C662.348 416.029 663.671 413.494 664.436 410.769C666.998 401.435 666.769 391.555 663.777 382.349C660.785 373.143 655.162 365.016 647.602 358.972L644.041 356.706C638.861 353.145 633.357 349.26 628.501 345.375C616.518 335.292 608.335 321.473 605.222 306.203C604.698 303.63 604.151 301.06 603.489 298.52C601.768 291.913 600.604 285.17 600.013 278.362C600.005 267.414 598.48 256.519 595.481 245.989C592.127 234.524 585.35 224.358 576.057 216.853C570.535 212.419 563.712 209.917 556.633 209.731H556.358C552.238 209.731 548.014 209.967 544.346 211.845C542.388 212.848 540.563 214.109 538.923 215.603C535.747 218.496 533.372 222.16 532.029 226.241C529.645 232.787 528.334 239.673 528.144 246.637C527.019 265.374 524.833 284.031 521.596 302.518C521.016 305.834 520.757 309.198 520.458 312.551C519.849 319.378 518.239 326.329 517.461 333.073V336.634C517.021 351.327 511.919 365.499 502.893 377.101C499.93 380.495 496.797 383.737 493.505 386.813L487.678 392.964C481.98 398.882 477.68 405.968 475.058 413.701C473.77 417.5 473.923 421.62 472.928 425.505C472.562 426.935 471.931 428.374 470.844 429.869C468.254 433.43 468.577 439.905 467.282 445.085C465.988 450.264 461.779 462.243 458.542 470.336L456.408 476.025C456.09 476.875 455.334 478.518 454.806 479.256C454.601 479.544 453.8 480.372 453.446 480.372H398.004M398.004 480.862C398.004 480.591 398.223 480.372 398.494 480.372H452.642C453.972 480.372 455.398 480.201 456.281 479.207C456.729 478.703 457.059 478.106 457.247 477.458C461.132 466.451 465.664 455.444 468.901 445.085C472.138 434.725 472.786 427.927 475.052 419.51C477.242 409.768 482.056 400.812 488.973 393.611C493.829 388.108 499.332 383.252 504.188 377.425C513.38 365.715 518.798 351.491 519.727 336.634C520.165 326.862 521.247 317.129 522.965 307.498C526.739 287.499 529.226 267.278 530.41 246.96C530.859 240.144 532.503 233.46 535.266 227.213C536.506 223.308 538.74 219.793 541.747 217.012C543.242 215.631 544.901 214.454 546.682 213.506C550.289 211.585 554.488 211.35 558.575 211.35C565.394 211.581 571.966 213.96 577.352 218.148C586.254 225.61 592.781 235.513 596.128 246.637C599.261 257.138 600.789 268.052 600.66 279.01C600.503 287.147 601.154 295.281 602.603 303.29C605.092 320.332 613.728 335.877 626.883 346.994C633.034 351.85 639.508 356.382 645.983 360.591C653.515 366.355 659.124 374.266 662.071 383.281C665.018 392.296 665.166 401.992 662.493 411.093C661.701 413.545 660.497 415.844 658.932 417.891C656.882 420.192 654.395 422.063 651.617 423.397C648.839 424.731 645.823 425.5 642.746 425.661C638.543 425.983 634.322 425.983 630.12 425.661H616.2C611.503 425.801 606.835 426.452 602.279 427.603C584.162 432.734 568.022 443.23 555.985 457.71C551.239 463.433 547.483 469.907 544.874 476.866C544.727 477.257 544.655 477.748 544.655 478.166C544.655 480.141 546.256 481.667 548.232 481.667H567.964C570.498 481.667 573.277 481.069 574.372 478.783C574.68 478.14 574.918 477.459 575.245 476.826C578.615 470.318 583.171 464.493 588.682 459.653C599.052 450.893 612.353 446.383 625.911 447.027H634.328L659.256 449.293C664.701 449.814 670.107 450.679 675.443 451.883C677.532 452.348 679.453 453.38 680.995 454.864C682.537 456.349 683.64 458.23 684.183 460.3C686.013 465.088 687.21 470.094 687.744 475.192C687.656 479.319 692.125 481.343 696.254 481.343H710.756C713.878 481.343 717.075 480.368 718.823 477.782C721.864 473.158 726.12 469.461 731.125 467.099C735.665 465.297 740.314 463.783 745.045 462.566C752.691 460.873 760.167 458.489 767.383 455.444C774.789 452.565 781.045 447.333 785.188 440.552C790.931 429.858 793.087 417.602 791.339 405.589C790.53 397.322 787.72 389.375 783.151 382.438C778.582 375.5 772.392 369.779 765.117 365.77C753.756 360.001 741.82 355.444 729.506 352.173C721.055 350.305 712.812 347.593 704.902 344.08C699.804 341.931 695.342 338.511 691.942 334.148C688.542 329.784 686.316 324.621 685.478 319.153C684.844 312.261 684.844 305.326 685.478 298.434C685.509 292.407 686.38 286.414 688.068 280.629C693.149 262.675 704.676 247.228 720.441 237.248C731.963 230.057 743.97 223.675 756.376 218.148C766.056 213.539 775.271 208.01 783.893 201.638C784.423 201.256 784.942 200.861 785.45 200.454C792.344 194.92 794.253 185.642 794.253 176.802V130.93C794.253 129.038 792.874 127.327 791.638 128.76C791.318 129.132 790.828 129.94 790.465 130.27L772.886 146.279C762.527 156.963 753.138 168.617 743.75 178.653C736.462 188.308 728.454 197.399 719.794 205.846C711.053 213.94 702.312 222.033 693.895 230.774C687.044 238.669 681.174 247.365 676.414 256.672C670.573 269.745 666.647 283.593 664.759 297.786C664.142 304.785 662.506 311.656 659.903 318.182C659.266 320.432 657.906 322.411 656.035 323.815C654.164 325.218 651.883 325.969 649.544 325.951C646.745 325.951 643.911 325.788 641.292 324.801C640.006 324.317 638.76 323.727 637.566 323.038C630.356 318.273 625.167 311.007 622.998 302.642C619.937 292.108 618.197 281.233 617.818 270.269C616.493 253.489 611.403 237.223 602.926 222.68C596.928 212.107 588.493 203.117 578.323 196.458C569.497 191.269 559.424 188.582 549.187 188.688C544.515 188.906 539.864 189.447 535.266 190.307C530.504 190.731 525.999 192.651 522.394 195.791C518.789 198.93 516.269 203.13 515.195 207.789C513.799 212.645 512.93 217.638 512.605 222.68C512.605 233.04 512.605 243.076 512.605 255.054C511.819 266.103 509.531 276.994 505.807 287.427C501.459 299.798 496.155 311.813 489.944 323.361C484.806 334.623 476.18 343.931 465.34 349.907C461.329 352.431 456.784 353.983 452.067 354.44C447.211 354.44 443.003 351.526 438.147 344.08C430.797 332.75 422.685 321.934 413.867 311.707C404.855 301.607 395 292.293 384.407 283.866C374.741 276.749 366.779 267.57 361.098 256.996C357.537 249.874 354.624 242.428 350.739 235.63C344.131 222.017 332.539 211.469 318.365 206.17C308.33 202.933 298.294 200.343 288.258 196.458C279.817 194.017 272.058 189.646 265.597 183.691C259.135 177.735 254.148 170.358 251.029 162.142C247.387 152.663 246.272 142.4 247.792 132.359C249.368 123.763 253.163 115.729 258.799 109.05C270.688 95.3288 281.511 80.7182 291.172 65.3463C293.597 60.8197 296.529 56.5839 299.913 52.7207C302.108 49.6642 304.967 47.1445 308.275 45.3503C311.583 43.5562 315.254 42.5343 319.013 42.3613C330.711 43.4182 341.579 48.8523 349.444 57.5767C357.051 65.617 363.187 74.9309 367.573 85.094C374.135 98.6034 383.135 110.786 394.119 121.028C410.306 135.92 426.492 150.164 442.679 164.732C452.752 174.799 466.318 180.596 480.556 180.919H483.793C487.452 180.756 491.038 179.838 494.325 178.223C497.612 176.607 500.529 174.329 502.893 171.531C506.854 167.487 510.232 162.911 512.929 157.934C518.303 145.677 524.467 133.782 531.382 122.323C536.203 114.21 542.855 107.337 550.805 102.252C556.335 98.7169 562.701 96.7066 569.258 96.4246C573.276 96.5099 577.237 97.3902 580.913 99.0145C584.736 100.522 588.419 102.364 591.92 104.518C599.689 109.05 607.135 114.23 614.905 118.115C623.018 122.297 632 124.515 641.127 124.589C644.89 125.047 648.695 125.047 652.458 124.589C660.832 123.001 668.484 118.787 674.304 112.56C680.125 106.332 683.812 98.413 684.831 89.95C685.802 82.2108 685.802 74.3804 684.831 66.6412C684.401 59.5161 681.629 52.7327 676.945 47.3463C672.261 41.9599 665.929 38.2725 658.932 36.8578C648.241 34.9839 637.412 34.0092 626.559 33.9442C621.379 33.9442 616.2 33.9442 611.344 33.9442C604.905 33.363 598.672 31.3812 593.079 28.1378C587.487 24.8944 582.672 20.4677 578.97 15.1677C576.762 11.9102 574.843 8.46905 573.232 4.88351C572.253 2.70439 571.842 0.221801 570.391 -1.67583C568.956 -3.55234 566.411 -3.9325 564.049 -3.9325L538.667 -3.9325C536.49 -3.9325 533.648 -3.19628 533.648 -1.0189C533.648 0.27603 533.648 4.16082 533.648 7.07442C533.736 17.9136 534.601 28.7324 536.238 39.4477C537.515 46.2442 536.248 53.2732 532.676 59.1954C528.546 66.9604 524.871 74.9594 521.67 83.1516C516.814 95.7772 512.281 109.05 506.13 121.352C502.472 128.595 497.903 135.34 492.534 141.423C490.117 144.217 487.138 146.469 483.79 148.031C480.443 149.593 476.803 150.43 473.11 150.488L-nan -nanL473.11 150.488C466.272 150.112 459.667 147.873 454.009 144.013C443.326 136.891 432.967 128.798 421.636 120.705C413.345 114.522 405.844 107.346 399.299 99.3382C392.113 89.4911 386.54 78.5634 382.788 66.965C374.795 50.1247 363.952 34.7917 350.739 21.6424C344.77 15.4649 340.431 7.89989 338.113 -0.371436C337.424 -3.05919 334.33 -3.9325 331.555 -3.9325L299.47 -3.9325C297.254 -3.9325 295 -3.18549 293.809 -1.31602C293.551 -0.910464 293.357 -0.467419 293.185 -0.0185137C290.199 7.76301 285 14.5069 278.223 19.3763C270.101 25.4163 262.319 31.9008 254.914 38.8002C245.116 48.6902 236.331 59.5352 228.691 71.1735C222.164 81.1513 213.948 89.9153 204.412 97.0721C199.688 100.838 195.251 104.95 191.138 109.374C180.455 120.381 171.391 132.359 162.003 144.013C155.977 150.999 150.864 158.722 146.787 166.998C139.093 184.553 135.124 203.513 135.133 222.68C134.681 235.464 136.209 248.241 139.665 260.557C142.249 270.053 143.556 279.852 143.55 289.693C143.373 304.436 139.236 318.86 131.572 331.455C128.278 337.039 123.523 341.619 117.818 344.7C112.113 347.781 105.675 349.245 99.1984 348.936H97.256C87.5088 348.477 77.9913 345.821 69.415 341.167C61.6484 336.582 54.1869 331.5 47.0774 325.951C30.8533 313.192 11.8188 304.499 -8.43657 300.591C-9.19367 300.445 -9.9637 300.376 -10.7348 300.376H-12.3863C-12.6689 300.376 -12.9499 300.322 -13.2268 300.265C-14.3264 300.038 -15.0792 301.133 -15.0792 302.256L-15.0792 334.246C-15.0792 334.901 -14.665 335.517 -14.0107 335.555C-13.4978 335.585 -12.9805 335.513 -12.4894 335.339L-nan -nanL-12.4894 335.339H-4.39604C2.38416 335.76 9.1068 336.844 15.6754 338.577C26.1445 342.084 36.3198 346.414 46.1063 351.526C61.7008 359.291 78.8643 363.388 96.2848 363.504H105.663C108.686 363.504 111.724 363.328 114.641 362.534C119.828 361.122 124.733 358.789 129.116 355.633C134.731 351.591 139.337 346.308 142.579 340.195C149.532 327.097 154.444 313.015 157.147 298.434C158.404 290.145 158.582 281.735 157.681 273.411C157.384 270.666 157.216 267.902 156.887 265.16C156.081 258.446 153.578 251.732 151.967 245.018C148.937 232.302 148.17 219.152 149.701 206.17C151.366 194.412 155.82 183.222 162.691 173.536C169.562 163.85 178.649 155.947 189.196 150.488C193.588 147.765 198.602 146.205 203.764 145.956C207.516 146.237 211.13 147.489 214.252 149.589C216.127 150.85 217.785 152.391 219.174 154.151C221.023 156.495 222.457 159.143 224.155 161.599C228.33 167.638 232.22 173.868 235.814 180.271C244.728 194.403 257.547 205.647 272.719 212.645C282.431 217.501 292.791 221.062 302.826 225.594C310.814 228.621 317.817 233.785 323.069 240.522C328.321 247.259 331.622 255.309 332.61 263.794C333.414 272.625 333.414 281.51 332.61 290.341C332.114 293.776 332.114 297.265 332.61 300.7C333.112 303.781 334.57 306.627 336.777 308.834C337.927 309.984 339.249 310.93 340.688 311.644C343.343 312.961 346.401 313.002 349.365 313.002H357.213C362.959 312.854 368.664 313.994 373.912 316.337C379.16 318.68 383.816 322.168 387.541 326.545C391.266 330.922 393.965 336.076 395.439 341.631C396.913 347.186 397.126 353 396.061 358.648C393.482 372.592 389.244 386.178 383.436 399.115C379.227 409.15 374.695 419.186 371.458 429.546C369.627 434.581 368.967 439.968 369.528 445.296C370.089 450.625 371.856 455.756 374.695 460.3C378.061 464.96 381.974 469.198 386.349 472.926C389.537 476.272 393.23 479.094 397.292 481.29C397.615 481.465 398.004 481.229 398.004 480.862Z" fill="white" fill-opacity="0.2"/>
<path d="M-12.1656 187.717V169.265C-12.1656 168.192 -11.296 167.322 -10.2232 167.322H3.04981C10.5196 167.521 17.9675 166.426 25.0636 164.085C39.2994 158.545 50.8803 147.775 57.4369 133.978C63.4011 122.213 66.7161 109.284 67.1489 96.1009C67.7964 86.8319 67.7964 77.5289 67.1489 68.2599C67.1736 58.6881 66.1971 49.14 64.2353 39.7714C63.4399 35.9955 61.68 32.49 59.1269 29.5966C56.5739 26.7031 53.3148 24.5204 49.6673 23.2611C41.533 20.8474 33.1854 19.2213 24.7399 18.4051L6.61087 17.7576H-2.77738C-5.24912 17.4392 -7.7515 17.4392 -10.2232 17.7576L-nan -nanL-10.2232 17.7576H-12.6512C-13.9922 17.7576 -15.0792 16.6705 -15.0792 15.3296V6.91255C-15.0792 0.923004 -10.2237 -3.9325 -4.23418 -3.9325H73.3618C81.5846 -3.9325 89.6811 -0.618384 97.9035 -0.695168H104.702H105.254C107.44 -0.695168 109.589 -1.25225 111.5 -2.31383C113.411 -3.37541 115.561 -3.9325 117.747 -3.9325H142.899C143.974 -3.9325 144.845 -3.90879 144.845 -2.83415C144.845 -2.41593 144.711 -1.16082 144.458 -0.827581C139.802 5.31207 134.13 10.6126 127.687 14.844L120.565 20.3475C114.968 23.8284 109.564 27.6108 104.378 31.6781C96.6452 38.4966 91.2162 47.5448 88.839 57.5767C86.0795 68.1559 84.5586 79.0198 84.3067 89.95L-nan -nanL84.3067 89.95C83.5928 106.67 79.5192 123.075 72.3286 138.186C69.6232 143.376 66.3672 148.261 62.6166 152.754C48.9857 169.752 29.6698 181.249 8.22953 185.127L-11.1944 188.041M-11.5784 188.937C-11.3396 188.38 -10.83 187.985 -10.2307 187.894L7.9058 185.127C29.6765 181.414 49.3529 169.907 63.2641 152.754C67.0813 148.241 70.4429 143.361 73.2998 138.186C80.4907 122.96 84.5633 106.45 85.2779 89.6263C85.8328 78.7022 87.4592 67.8591 90.1339 57.253C92.3977 47.5107 97.5953 38.6972 105.026 32.0018C112.148 26.1746 119.917 21.6424 127.687 16.4627C133.473 12.705 138.659 8.10317 143.073 2.81426C143.987 1.71849 145.37 -0.0357027 146.011 -1.31091C146.548 -2.37754 145.819 -3.9325 144.626 -3.9325H118.96C115.949 -3.9325 112.973 -3.38208 110.047 -2.6731C108.285 -2.24609 106.501 -1.90996 104.702 -1.66637C103.951 -1.54766 103.196 -1.47048 102.439 -1.43484C99.6356 -1.30276 96.7947 -1.41615 94.0022 -1.70021C88.6906 -2.24053 83.4716 -3.9325 78.1326 -3.9325L-12.8131 -3.9325C-15.0792 -3.9325 -15.0792 -3.9325 -15.0792 -1.66637V16.401C-15.0792 17.4322 -14.4918 18.4705 -13.4606 18.4705C-12.8978 18.4705 -12.3431 18.3371 -11.8419 18.0813L-nan -nanL-11.8419 18.0813C-9.36951 17.7732 -6.86843 17.7732 -4.39604 18.0813H6.61087H20.7557C23.4084 18.0813 26.0615 18.2513 28.6721 18.7221C35.8328 20.0136 42.8614 21.966 49.6673 24.556C53.0865 25.6892 56.1307 27.7361 58.4702 30.4751C60.8098 33.2141 62.3556 36.5408 62.9404 40.0952C64.8708 49.3593 65.8471 58.7968 65.8539 68.2599C66.5015 77.5289 66.5015 86.8319 65.8539 96.1009C65.6311 109.107 62.3012 121.872 56.142 133.33C49.6172 147.005 37.9962 157.58 23.7687 162.79C16.8951 165.128 9.66013 166.224 2.40234 166.027H-10.1804C-11.2772 166.027 -12.3638 165.703 -13.4606 165.703C-14.4667 165.703 -15.0792 166.683 -15.0792 167.689L-15.0792 187.07C-14.9726 187.839 -14.6381 188.558 -14.1188 189.135C-13.9346 189.34 -13.7301 189.523 -13.5093 189.683C-12.8131 190.187 -11.917 189.727 -11.5784 188.937Z" fill="white" fill-opacity="0.2"/>
<path d="M158.126 481.666C159.466 472.602 162.082 463.774 165.895 455.444C171.045 444.3 176.884 433.488 183.377 423.07L189.204 413.358C194.39 403.379 200.23 393.754 206.686 384.546C212.305 376.064 219.596 368.819 228.113 363.252C235.304 358.552 243.24 355.133 251.57 353.134C254.641 352.396 257.805 352.173 260.962 352.173H264.31C269.422 351.987 274.512 352.936 279.214 354.951C283.916 356.966 288.113 359.997 291.504 363.827C295.672 368.938 298.657 374.908 300.244 381.309C303.857 391.85 306.564 402.681 308.338 413.682L308.661 416.919C311.26 432.972 316.167 448.565 323.229 463.213C323.895 464.572 324.522 465.948 325.109 467.339C328.189 474.638 322.249 481.99 314.327 481.99H304.453C303.023 481.99 301.863 480.83 301.863 479.4V477.134C300.244 465.479 298.302 453.177 297.655 440.876V436.667C297.655 430.352 297.655 423.61 296.438 416.961C295.876 413.888 295.278 410.816 294.754 407.737C293.073 397.841 289.324 388.392 283.734 380.014C280.991 376.324 277.494 373.261 273.475 371.028C269.456 368.795 265.007 367.444 260.425 367.065H255.569C249.523 367.142 243.551 368.411 237.996 370.8C232.441 373.188 227.411 376.65 223.196 380.985C215.401 389.079 208.952 398.369 204.096 408.502L190.499 433.43C187.909 438.61 184.996 443.465 182.082 448.645C176.775 457.825 172.874 467.747 170.507 478.081C170.454 478.312 170.428 478.747 170.428 478.984C170.428 480.754 168.993 481.99 167.223 481.99H158.126M158.024 482.015C158.091 481.998 158.161 481.99 158.231 481.99H169.003C170.78 481.99 172.707 481.593 173.589 480.05C174.486 478.48 174.491 476.564 174.913 474.805C177.046 465.918 180.326 457.342 184.672 449.293C191.794 436.02 199.564 422.747 206.686 409.15C211.383 399.101 217.73 389.909 225.462 381.956C233.353 373.688 244.149 368.812 255.569 368.36H258.159C262.595 368.52 266.937 369.681 270.861 371.755C274.785 373.829 278.19 376.763 280.82 380.338C287.439 389.914 291.353 401.097 292.151 412.711C292.151 422.423 294.093 431.811 294.741 441.523C295.594 454.326 297.106 467.077 299.273 479.724C299.618 482.545 302.803 483.608 305.645 483.608H310.068C321.335 483.608 329.963 473.252 324.848 463.213C317.913 448.515 313.012 432.94 310.28 416.919C308.172 404.547 305.252 392.327 301.539 380.338C299.84 373.817 296.748 367.743 292.475 362.532C288.924 358.62 284.567 355.524 279.705 353.456C274.843 351.389 269.591 350.398 264.31 350.554H260.605C257.684 350.554 254.759 350.745 251.907 351.376C243.282 353.284 235.049 356.7 227.593 361.48C218.904 367.05 211.456 374.351 205.714 382.927C199.105 391.872 193.154 401.285 187.909 411.092C179.317 424.984 171.534 439.36 164.6 454.149C160.716 462.697 158.146 471.781 156.976 481.092C156.902 481.683 157.446 482.16 158.024 482.015Z" fill="white" fill-opacity="0.2"/>
<path d="M36.7338 481.666L33.8202 479.4C28.6592 474.122 21.7559 470.901 14.3962 470.335H-9.97533C-10.3438 470.335 -10.7107 470.4 -11.0721 470.472C-12.6634 470.79 -13.7685 469.228 -13.7685 467.605V428.932C-13.7685 427.125 -12.3034 425.66 -10.4961 425.66C-10.3041 425.66 -10.1124 425.643 -9.92331 425.609L4.36049 423.07C7.15699 422.749 9.98104 422.749 12.7775 423.07C22.4227 423.134 31.8107 426.188 39.6474 431.811C53.6955 440.822 64.9164 453.614 72.0206 468.716C74.6753 474.953 69.6841 481.342 62.9062 481.342H36.7338M36.5128 480.458C36.6427 480.978 37.1093 481.342 37.6446 481.342H61.2684C68.8938 481.342 74.524 474.18 71.6969 467.098C64.6645 451.777 53.4412 438.758 39.3236 429.545C31.368 423.636 21.716 420.457 11.8063 420.48C9.00984 420.159 6.18579 420.159 3.38929 420.48C-7.81941 422.348 -16.0347 432.046 -16.0347 443.409V465.043C-16.0347 467.252 -14.5857 469.444 -12.4247 468.985C-11.8057 468.854 -11.1784 468.716 -10.5457 468.716H-5.99895H8.56902H14.3962C21.1309 469.136 27.4651 472.015 32.2055 476.787C32.6408 477.225 33.1005 477.64 33.6002 478.004L36.0672 479.798C36.2887 479.959 36.4464 480.193 36.5128 480.458Z" fill="white" fill-opacity="0.2"/>
<path d="M456.586 481.666L459.823 472.601C464.153 459.985 467.721 447.121 470.506 434.077C471.908 426.15 473.965 418.354 476.657 410.768C478.775 405.307 481.844 400.265 485.722 395.877L494.463 386.812L499.642 381.632C510.123 370.865 516.532 356.788 517.771 341.813C519.714 321.742 522.951 301.347 525.865 283.541C527.101 275.5 527.857 267.392 528.131 259.261V255.053C529.336 245.722 531.73 236.583 535.253 227.859C536.814 222.869 539.904 218.496 544.087 215.359C548.27 212.221 553.334 210.479 558.562 210.378C561.145 210.378 563.74 210.574 566.214 211.319C571.402 212.88 576.239 215.463 580.436 218.93C585.633 223.224 589.685 228.739 592.23 234.981C597.408 245.03 600.388 256.066 600.971 267.355C600.971 270.592 600.971 273.506 600.971 276.419C601.082 285.096 601.84 293.753 603.237 302.318C606.507 320.374 616.59 336.484 631.402 347.317L637.553 351.525L648.559 359.942C653.139 363.425 656.902 367.865 659.586 372.954C662.27 378.042 663.81 383.656 664.099 389.402C664.778 395.101 664.778 400.861 664.099 406.56C663.54 410.137 661.96 413.476 659.548 416.176C657.135 418.875 653.994 420.82 650.502 421.775C645.951 423.468 641.109 424.239 636.258 424.041H611.006C599.368 425.626 588.272 429.953 578.633 436.667C568.558 442.953 559.859 451.212 553.058 460.947C552.506 461.75 551.974 462.566 551.463 463.394C546.448 471.521 538.383 478.105 528.832 478.105H516.086C514.955 478.105 513.835 477.382 514.009 476.264C514.086 475.763 514.157 475.252 514.092 474.749C513.889 473.174 513.929 471.577 514.21 470.011C514.523 466.349 514.523 462.667 514.21 459.004C514.21 456.861 514.21 454.495 511.823 453.193C510.69 452.575 509.35 452.53 508.059 452.53C506.867 452.62 505.706 452.954 504.648 453.511C503.59 454.068 502.658 454.835 501.909 455.767C496.699 461.161 492.626 467.546 489.93 474.544L-nan -nanL489.93 474.544C489.853 475.361 489.612 476.154 489.223 476.877C488.47 478.276 486.798 478.752 485.21 478.752H460.794M458.48 479.009C458.722 478.842 459.01 478.752 459.304 478.752H482.668C486.119 478.752 489.91 477.777 491.11 474.54C491.495 473.5 491.753 472.404 492.201 471.388C494.958 465.136 498.791 459.41 503.527 454.472C504.13 453.642 504.905 452.952 505.799 452.449C506.693 451.946 507.685 451.643 508.707 451.559H510.326C511.374 451.559 512.051 452.195 512.528 453.125C514.08 456.146 514.021 459.739 514.096 463.134C514.178 466.83 514.108 470.528 513.887 474.22C513.887 476.723 515.916 478.752 518.419 478.752H532.008C540.371 478.752 547.366 472.823 551.459 465.529C552.342 463.956 553.308 462.426 554.353 460.947C560.933 451.224 569.549 443.05 579.604 436.991C589.213 430.277 600.336 426.05 611.978 424.689H636.905C641.855 424.777 646.783 424.01 651.473 422.423C655.221 421.45 658.6 419.397 661.19 416.519C663.78 413.641 665.467 410.065 666.041 406.236C666.688 400.427 666.688 394.564 666.041 388.754C665.938 382.524 664.462 376.394 661.721 370.798C659.933 367.149 657.634 363.786 654.904 360.807C651.995 357.632 648.212 355.452 644.319 353.611L636.899 350.104C633.888 348.68 630.973 347.033 628.418 344.897C616.069 334.58 607.694 320.207 604.855 304.26C602.428 292.732 600.806 281.05 600 269.297C599.747 257.238 596.758 245.393 591.259 234.658C588.519 228.3 584.298 222.691 578.948 218.298C574.684 214.797 569.803 212.15 564.57 210.486C561.904 209.638 559.093 209.406 556.296 209.406C550.761 209.45 545.386 211.265 540.958 214.585C536.53 217.906 533.283 222.558 531.692 227.859C529.321 236.527 527.91 245.429 527.483 254.405C527.483 264.117 527.483 274.153 524.894 283.865C521.656 302.965 518.743 322.389 516.8 342.137C515.643 356.784 509.335 370.547 498.995 380.985L485.074 395.229C481.146 399.702 478.073 404.86 476.01 410.444C473.258 418.147 471.093 426.047 469.535 434.077C465.908 448.715 461.482 463.143 456.279 477.295C455.788 478.63 457.311 479.819 458.48 479.009Z" fill="white" fill-opacity="0.2"/>
<path d="M470.52 151.461C468.048 151.776 465.546 151.776 463.074 151.461C457.319 150.129 451.913 147.591 447.211 144.015C433.657 135.045 420.781 125.091 408.687 114.232C399.522 106.173 392.04 96.3809 386.673 85.4198C384.463 81.2287 382.517 76.9039 380.846 72.4705C379.166 66.7445 377.21 61.104 374.984 55.5688C373.958 53.0159 372.691 50.565 371.168 48.2734C366.432 41.1461 360.999 34.503 354.947 28.4428C351.044 23.9927 347.371 19.3465 343.94 14.5223C338.913 7.07993 345.74 -1.34057 354.722 -1.34057H374.352C376.15 -1.34057 377.609 -0.414584 377.609 1.38427C377.609 1.58646 377.627 2.3205 377.665 2.51918C381.606 23.3951 386.667 44.0442 392.824 64.3772C395.9 75.6915 401.426 86.1909 409.011 95.1318C413.489 100.317 418.728 104.793 424.55 108.405C432.749 113.721 441.885 117.411 451.46 119.282C453.152 119.613 454.876 119.735 456.599 119.735C460.741 119.675 464.716 118.089 467.762 115.282C470.808 112.475 472.712 108.643 473.11 104.52C473.756 98.3861 473.756 92.2012 473.11 86.0673V82.5062C470.977 62.2027 473.184 41.6778 479.584 22.2919C481.973 16.0241 485.029 10.0323 488.698 4.41957C489.085 3.82789 489.296 3.138 489.296 2.43111C489.296 1.86711 489.423 1.30711 489.709 0.820865C489.912 0.475096 490.13 0.138161 490.36 -0.189127C491.576 -1.91505 493.702 -2.6355 495.813 -2.6355H525.555C528.058 -2.6355 530.087 -0.606336 530.087 1.89676C529.926 3.29501 529.926 4.70703 530.087 6.10529C530.919 17.5542 532.651 28.92 535.266 40.0972C536.652 46.7489 535.497 53.6783 532.029 59.5212C526.75 69.6382 522.041 80.0427 517.926 90.6857C517.617 91.4841 517.461 92.3333 517.461 93.1894C517.461 95.3323 517.108 97.4628 516.368 99.4739C512.079 111.129 506.701 122.357 500.303 133.009C497.097 137.891 493.168 142.257 488.649 145.958C486.141 148.028 483.247 149.58 480.135 150.525C477.024 151.469 473.756 151.788 470.52 151.461ZM470.881 151.642C470.79 151.597 470.822 151.458 470.924 151.456C476.282 151.348 481.47 149.538 485.735 146.282C490.542 142.665 494.608 138.159 497.714 133.009C505.516 120.473 511.921 107.121 516.814 93.1894C521.164 82.0738 526.247 71.259 532.029 60.8161C535.45 54.3675 536.591 46.9521 535.266 39.7735C533.501 29.0736 532.635 18.2447 532.677 7.40022C532.677 1.85764 528.183 -2.6355 522.641 -2.6355H500.647C496.649 -2.6355 492.442 -1.47324 490.49 2.01626C489.835 3.18582 489.23 4.39168 488.493 5.51131C484.898 10.9765 481.91 16.8205 479.584 22.9394C473.236 42.5595 471.031 63.2844 473.11 83.8011C474.08 90.7818 474.08 97.8631 473.11 104.844C472.789 108.681 471.056 112.263 468.244 114.895C465.433 117.527 461.745 119.021 457.894 119.088C456.17 119.088 454.446 118.972 452.752 118.651C443.4 116.881 434.477 113.292 426.492 108.081C420.781 104.578 415.648 100.209 411.277 95.1318C403.866 86.2443 398.456 75.8655 395.414 64.7009C389.571 45.0856 384.535 25.0668 380.307 4.64452C380.017 3.24832 380.012 1.90682 379.756 0.504118C379.3 -2.00027 375.981 -2.31177 373.435 -2.31177H355.186C345.029 -2.31177 337.192 7.1401 342.969 15.4935C346.388 20.0169 350.063 24.3404 353.976 28.4428C360.455 35.8991 366.1 44.0407 370.81 52.7228C376.637 63.406 380.846 74.7366 386.026 85.0961C391.496 96.1745 399.085 106.073 408.363 114.232C420.728 125 433.698 135.052 447.211 144.339C451.998 147.974 457.523 150.516 463.398 151.785C465.872 152.084 468.373 152.096 470.849 151.822C470.944 151.811 470.966 151.685 470.881 151.642Z" fill="white" fill-opacity="0.2"/>
<path d="M97.9351 0.923495L91.8687 -0.99221C91.8133 -1.00968 91.754 -1.01175 91.6973 -0.999476C91.3195 -0.917693 91.3341 -1.0189 91.7207 -1.0189H101.969C103.578 -1.0189 103.865 0.705455 102.274 0.949898C100.843 1.16988 99.3914 1.27002 97.9351 1.24723L-nan -nanL97.9351 1.24723M97.9351 0.76019C97.9351 1.02871 98.1537 1.24635 98.4221 1.24032C99.6574 1.21258 100.885 1.10728 102.099 0.926569C106.135 0.325588 105.144 -3.9325 101.063 -3.9325L89.8712 -3.9325C88.2148 -3.9325 87.2216 -2.18704 88.5374 -1.18085C89.3499 -0.5595 90.2757 -0.105793 91.2608 0.156105C91.606 0.247868 91.964 0.276029 92.3211 0.276029H97.4509C97.7183 0.276029 97.9351 0.492796 97.9351 0.76019Z" fill="white" fill-opacity="0.2"/>
<path d="M458.887 118.115H457.268C442.346 116.442 428.372 109.966 417.449 99.662C404.08 86.8367 395.221 70.0279 392.198 51.7495L389.932 43.3325C383.507 18.7027 402.528 -3.9325 427.982 -3.9325H482.689C487.443 -3.9325 490.663 0.855138 488.023 4.80829L486.081 7.39815C479.619 18.2646 475.64 30.4248 474.426 43.0087C472.955 51.3421 472.305 59.7996 472.484 68.2599V81.2092C472.484 82.9192 472.484 84.7195 472.484 86.5625C472.484 89.893 472.949 93.2192 472.902 96.5494C472.871 98.6941 472.571 100.833 472.003 102.915C470.994 106.614 469.167 110.038 466.657 112.935C465.435 114.182 463.973 115.169 462.36 115.837C460.746 116.504 459.014 116.839 457.268 116.82M456.904 117.366C457.118 117.046 457.523 116.917 457.889 117.034C459.891 117.676 462.01 117.878 464.102 117.623C468.669 117.066 472.246 113.456 474.012 109.207C474.611 107.765 475.084 106.269 475.422 104.735C475.821 102.929 476.028 101.092 476.044 99.2533C476.081 95.1901 475.427 91.1366 475.368 87.0736C475.31 83.019 475.136 78.9644 474.617 74.9098C474.186 71.5434 473.71 68.1703 473.777 64.7771C473.907 58.1304 474.557 51.5015 475.721 44.9511C476.903 32.6606 480.636 20.7548 486.681 9.9946C486.926 9.55818 487.21 9.14346 487.514 8.7459C491.796 3.14967 487.014 -3.9325 479.968 -3.9325L430.666 -3.9325C403.005 -3.9325 381.954 21.1218 389.48 47.7393C389.736 48.645 389.995 49.5501 390.256 50.4546C393.433 68.9379 402.387 85.9385 415.831 99.0145C426.998 109.279 441.076 115.816 456.114 117.728C456.425 117.768 456.73 117.627 456.904 117.366Z" fill="white" fill-opacity="0.2"/>
<path d="M10.1719 149.194C7.33515 149.202 4.50317 149.023 1.69419 148.66C-2.38456 148.133 -6.47184 147.575 -10.5845 147.575H-13.4606C-14.3545 147.575 -15.0792 146.851 -15.0792 145.957V126.924C-15.0792 125.099 -13.5995 123.619 -11.7742 123.619C-11.3906 123.619 -11.0102 123.686 -10.6486 123.814C-5.26482 125.721 0.302068 127.066 5.9634 127.828H10.8194C13.1898 127.828 15.5853 127.729 17.8393 126.996C21.8865 125.679 25.5057 123.24 28.2564 119.93C31.7705 115.701 33.6272 110.339 33.4807 104.843C34.0818 96.1697 31.4302 87.584 26.0432 80.7604C20.6562 73.9369 12.9203 69.3651 4.34474 67.937C0.899095 67.6151 -2.56906 67.6151 -6.01471 67.937H-11.1944C-11.1944 67.937 -13.7843 66.7775 -13.7843 65.3471V54.6134C-13.7843 47.423 -8.06767 41.4583 -0.892136 41.9204C5.65352 42.342 12.165 43.2462 18.589 44.6283C26.1965 46.0619 33.2086 49.7176 38.74 55.1337C44.2713 60.5498 48.0738 67.4835 49.6673 75.0591C53.196 88.3172 53.196 102.268 49.6673 115.526C48.1711 123.56 44.2775 130.952 38.499 136.731C32.7205 142.509 25.3279 146.403 17.294 147.899C14.9319 148.235 12.534 148.235 10.1719 147.899M10.1719 146.749C10.1719 147.407 10.6601 147.965 11.3152 148.023C13.4133 148.21 15.5265 148.168 17.6178 147.899C25.5628 146.203 32.8472 142.244 38.5917 136.5C44.3362 130.755 48.2953 123.471 49.9911 115.526C53.339 102.121 53.2276 88.0854 49.6673 74.7354C48.3781 67.0825 44.9155 59.9618 39.6923 54.2219C34.469 48.482 27.7054 44.3652 20.2076 42.3621C9.58176 40.0351 -1.295 39.0562 -12.1656 39.4485C-13.7748 39.4485 -15.0792 40.753 -15.0792 42.3621V65.9946C-15.0792 69.3149 -8.68163 67.6133 -5.36131 67.6133H1.55834C3.19721 67.6133 4.84033 67.7225 6.43201 68.1129C13.897 69.9441 20.548 74.2604 25.2666 80.3891C30.4876 87.1704 32.9585 95.6717 32.1858 104.195C32.2687 109.334 30.5243 114.335 27.2634 118.307C24.7603 121.357 21.4886 123.648 17.8162 124.964C15.5859 125.763 13.1886 125.885 10.8194 125.885L5.9634 125.561C0.511956 124.85 -4.8445 123.546 -10.0107 121.671C-10.5806 121.464 -11.1813 121.353 -11.7876 121.353H-12.1198C-12.7861 121.353 -13.4418 121.093 -14.108 121.093C-14.7374 121.093 -15.0792 121.741 -15.0792 122.37L-15.0792 134.95C-15.0792 140.671 -10.4411 145.309 -4.71978 145.309C-0.245132 145.74 4.25755 145.781 8.73761 145.434C9.50709 145.374 10.1719 145.977 10.1719 146.749Z" fill="white" fill-opacity="0.2"/>
<path d="M11.1431 127.505C4.05289 127.247 -2.9467 125.825 -9.57577 123.296L-nan -nanL-9.57577 123.296L-12.5684 122.768C-14.0206 122.512 -15.0792 121.25 -15.0792 119.775V75.7075C-15.0792 71.5952 -11.7456 68.2616 -7.63337 68.2616C-2.69013 67.6211 2.31509 67.6211 7.25833 68.2616C11.4508 69.3281 15.387 71.224 18.8344 73.8373C22.2818 76.4507 25.1705 79.7285 27.3298 83.477C29.879 87.6538 31.5143 92.3233 32.1281 97.1778C32.7419 102.032 32.3202 106.962 30.8908 111.642C29.7825 115.727 27.3909 119.348 24.0686 121.971C20.7462 124.594 16.669 126.08 12.4381 126.21L-nan -nanL12.4381 126.21M11.8209 128.061C12.1922 126.947 13.218 126.198 14.3824 126.047C18.1879 125.551 21.803 124.038 24.8377 121.65C28.3855 118.858 30.9578 115.015 32.1857 110.671C34.2023 101.757 32.7471 92.4105 28.1163 84.5321C24.2186 77.9008 18.3175 72.7292 11.3181 69.7232C8.67754 68.5891 5.82964 68.0229 2.9601 67.8668C-0.572686 67.6746 -4.1187 67.8062 -7.63337 68.2616C-11.7456 68.2616 -15.0792 71.5952 -15.0792 75.7075V118.516C-15.0792 121.46 -13.4628 124.167 -10.8707 125.562C-4.47589 127.934 2.21244 129.412 9.00456 129.955C10.2671 130.056 11.4203 129.263 11.8209 128.061Z" fill="white" fill-opacity="0.2"/>
<path d="M189.534 343.758C185.002 343.758 182.736 340.521 182.412 334.37C182.308 329.734 182.644 325.105 183.411 320.543C184.225 315.705 184.832 310.777 186.102 306.038C187.221 301.865 188.958 297.658 190.181 293.579C192.124 287.105 193.742 281.925 195.037 276.098C197.646 262.953 197.646 249.424 195.037 236.279C194.755 232.291 194.755 228.288 195.037 224.301C195.037 218.838 197.336 215.418 201.025 214.721C201.983 214.54 202.965 214.475 203.938 214.405C206.185 214.244 208.316 215.223 210.137 216.549C212.761 218.461 215.285 220.508 217.699 222.682C226.116 228.509 234.857 233.689 243.597 238.545L248.13 241.135C255.403 244.708 262.068 249.405 267.877 255.055C270.453 257.194 272.539 259.862 273.991 262.879C275.444 265.895 276.229 269.189 276.294 272.537C276.401 276.606 275.682 280.656 274.18 284.439C272.677 288.223 270.423 291.663 267.554 294.551C260.563 301.314 252.597 306.988 243.921 311.385C233.238 318.831 221.583 326.276 211.548 333.722C207.224 336.633 202.593 339.052 197.741 340.935C195.542 341.789 193.188 342.139 190.829 342.139M190.343 344.729C190.625 343.228 191.936 342.139 193.464 342.139H194.144C194.522 342.139 194.898 342.086 195.26 341.978C200.934 340.281 206.399 337.946 211.548 335.017L245.54 312.356C253.15 307.671 260.115 302.011 266.259 295.522C269.415 292.513 271.931 288.897 273.656 284.892C275.38 280.886 276.278 276.574 276.294 272.213C276.133 265.744 273.463 259.591 268.848 255.055C263.046 248.908 256.263 243.766 248.777 239.84C238.418 234.013 228.058 228.509 218.346 221.711C216.003 219.963 213.544 218.376 210.988 216.961C209.232 215.989 207.315 215.236 205.308 215.274C203.633 215.305 201.925 215.428 200.317 215.9C196.602 216.989 194.334 220.667 194.066 226.567C193.746 230.553 193.746 234.559 194.066 238.545C196.657 251.583 196.657 265.003 194.066 278.04C191.153 290.666 186.62 302.644 184.031 315.27C182.212 322.243 181.341 329.43 181.441 336.636C181.441 342.474 183.616 345.92 187.254 346.972C188.721 347.397 190.062 346.231 190.343 344.729Z" fill="white" fill-opacity="0.2"/>
<path d="M429.762 67.6149C428.289 67.6149 426.817 67.186 425.77 66.1506C424.652 65.0458 423.712 63.7675 422.99 62.3608C421.921 60.2797 421.358 57.9762 421.345 55.6368C421.239 53.832 421.533 52.026 422.204 50.3474C422.588 49.3865 423.091 48.4808 423.699 47.6506C424.601 46.4187 425.976 45.4586 427.495 45.6108C428.378 45.6993 429.244 45.9626 430.089 46.2328C431.119 46.5618 432.082 47.0801 432.928 47.765C434.122 48.7312 435.04 49.9946 435.59 51.4283C436.931 54.1624 437.402 57.2421 436.939 60.2521C436.645 62.1645 435.982 63.9903 435 65.633C433.881 67.5033 431.798 69.0408 429.762 68.2624M431.381 67.6149C431.112 67.7225 431.182 67.9621 431.451 67.8551C431.671 67.7677 431.887 67.6675 432.096 67.5548C433.534 66.7803 434.63 65.4874 435.663 64.2213C437.159 62.3864 438.232 60.2313 438.791 57.9094C439.543 54.788 439.329 51.5122 438.179 48.5147C437.531 46.9618 436.514 45.5902 435.217 44.5185C434.582 43.9935 433.888 43.5482 433.152 43.1902C431.621 42.4451 429.835 42.2667 428.217 42.7988C426.556 43.3452 425.238 44.6123 424.319 46.1003C423.613 47.2456 423.049 48.4776 422.646 49.7686C421.979 51.8997 421.76 54.1456 422.003 56.3651C422.247 58.5847 422.947 60.73 424.059 62.666C424.681 63.7481 425.424 64.7518 426.272 65.6585C427.6 67.079 429.498 68.1012 431.381 67.6149Z" fill="white" fill-opacity="0.2"/>
<path d="M206.676 5.45575C204.56 5.37264 202.529 4.60015 200.893 3.25596C199.309 1.95515 198.179 0.187934 197.661 -1.79137C197.627 -1.92304 197.611 -2.05885 197.611 -2.19495C197.611 -3.15457 198.389 -3.9325 199.349 -3.9325H208.86C214.566 -3.9325 217.352 2.2392 212.135 4.55094C211.739 4.72659 211.319 4.85951 210.891 4.92351C209.599 5.11631 208.281 5.0779 207 4.80829M206.214 5.98681C206.666 5.30854 207.542 5.07062 208.311 5.34303C209.033 5.59923 209.774 5.80052 210.528 5.94509C211.185 6.07113 211.863 5.99408 212.484 5.74665C212.751 5.64054 213.015 5.5299 213.277 5.41483C219.055 2.87669 215.913 -3.9325 209.602 -3.9325L197.37 -3.9325C196.252 -3.9325 195.345 -3.02587 195.345 -1.90749C195.345 -1.74731 195.364 -1.58745 195.405 -1.43261C196 0.816743 197.294 2.82169 199.104 4.29163C200.737 5.61872 202.711 6.44564 204.789 6.68414C205.357 6.74925 205.897 6.4619 206.214 5.98681Z" fill="white" fill-opacity="0.2"/>
<path d="M94.3845 303.938C91.8339 304.459 89.2572 303.516 86.8953 302.422C81.4288 299.888 76.4099 296.465 72.0469 292.284C63.6299 285.162 54.5654 278.363 45.5008 271.889L30.2854 259.911C28.5283 258.714 26.9097 257.334 25.4558 255.795C23.3097 253.525 21.2831 251.099 19.6371 248.443C18.8625 247.193 18.213 245.866 17.7004 244.479C16.6432 241.619 16.1916 238.571 16.3742 235.528C16.5568 232.484 17.3696 229.512 18.7612 226.799C19.3495 225.652 20.0359 224.562 20.8109 223.54C22.9256 220.753 25.5352 218.364 28.0084 215.889C30.7792 213.117 33.8183 210.62 37.0838 208.437L74.1974 181.791C74.6936 181.435 75.2891 181.243 75.8999 181.243C76.5499 181.243 77.1794 181.024 77.701 180.636C80.4475 178.593 83.4171 176.875 86.5504 175.513C88.91 174.488 91.4879 174.121 94.0607 174.121C98.2693 174.121 100.859 176.711 102.802 181.567C105.608 189.563 106.818 198.033 106.363 206.495C106.363 214.912 106.363 223.652 106.363 231.746V237.897C105.581 246.944 105.581 256.043 106.363 265.09C106.363 267.033 106.363 268.975 106.363 270.917C107.337 277.898 107.337 284.98 106.363 291.96C105.951 294.373 105.071 296.683 103.773 298.758C102.819 300.411 101.452 301.787 99.8063 302.752C98.1605 303.716 96.2921 304.237 94.3845 304.262M94.3845 304.741C94.3845 304.474 94.5971 304.257 94.8632 304.24C96.8474 304.115 98.7783 303.533 100.505 302.539C102.37 301.465 103.938 299.943 105.068 298.111C106.264 295.758 107.136 293.253 107.658 290.665C108.95 281.755 108.95 272.705 107.658 263.795C107.01 254.742 107.01 245.655 107.658 236.602C107.658 226.242 107.658 215.883 107.658 204.229C108.114 195.66 106.905 187.085 104.096 178.977C103.595 176.66 102.337 174.574 100.52 173.05C98.7029 171.526 96.4305 170.65 94.0607 170.56C91.2756 170.56 88.4886 170.987 85.9463 172.124C82.4058 173.709 79.0468 175.681 75.9317 178.006C62.6587 190.308 49.7094 199.373 36.4363 209.084C31.5209 212.245 27.056 216.057 23.1633 220.415C18.8399 224.585 16.2407 230.227 15.881 236.223C15.5212 242.219 17.4271 248.131 21.2209 252.788C23.6136 255.885 26.4498 258.612 29.6379 260.882C43.2347 271.565 57.8027 281.277 71.0757 293.255C76.3839 298.391 82.6809 302.39 89.5816 305.011C89.9739 305.16 90.3907 305.233 90.8104 305.233H93.8925C94.1642 305.233 94.3845 305.013 94.3845 304.741Z" fill="white" fill-opacity="0.2"/>
<path d="M445.607 276.744C440.377 276.309 435.3 274.764 430.715 272.212C420.813 266.738 411.67 259.99 403.522 252.14C395.349 243.742 389.059 233.699 385.069 222.681C378.828 205.134 369.751 188.729 358.199 174.121C356.515 171.877 355.02 169.5 353.73 167.014C352.518 164.678 351.075 162.339 350.791 159.722C350.756 159.398 350.738 159.072 350.738 158.744C350.738 157.089 351.191 155.465 352.048 154.049C352.907 152.816 354.081 151.836 355.447 151.209C356.814 150.583 358.323 150.334 359.818 150.488L-nan -nanL359.818 150.488C366.605 151.116 373.148 153.334 378.918 156.963C388.996 163.466 398.051 171.431 405.788 180.595C416.567 194.113 428.02 207.079 440.103 219.443L445.93 225.271C449.73 228.585 453.299 232.154 456.614 235.954C460.1 239.665 462.749 244.081 464.383 248.903C465.271 251.741 465.557 254.732 465.223 257.687C464.888 260.641 463.941 263.494 462.441 266.061C461.063 268.515 459.207 270.667 456.983 272.391C454.759 274.115 452.211 275.375 449.492 276.097L-nan -nanL449.492 276.097H445.607M445.297 277.955C445.476 276.882 446.403 276.097 447.49 276.097H449.484C449.918 276.097 450.352 276.038 450.765 275.904C456.407 274.082 461.152 270.174 464.019 264.966C466.992 259.566 467.705 253.208 466.002 247.284C464.338 242.212 461.574 237.569 457.909 233.688C452.729 227.86 446.902 222.681 441.398 217.177C429.096 204.875 418.089 191.926 407.083 178.653C399.596 168.978 390.508 160.657 380.213 154.049C374.439 150.134 367.744 147.791 360.789 147.251L-nan -nanL360.789 147.251C359.087 147.09 357.373 147.397 355.833 148.139C354.292 148.88 352.984 150.029 352.048 151.46C351.004 153.045 350.447 154.902 350.447 156.801C350.447 156.833 350.447 156.866 350.448 156.898C350.484 160.594 352.638 163.929 354.437 167.158C355.54 169.14 356.798 171.035 358.199 172.826C369.349 187.961 377.985 204.795 383.774 222.681C387.334 234.686 393.527 245.746 401.903 255.054C410.052 263.045 419.322 269.807 429.42 275.125C433.591 277.511 438.173 279.078 442.918 279.749C444.067 279.911 445.106 279.099 445.297 277.955Z" fill="white" fill-opacity="0.2"/>
</svg>
